<svg aria-hidden="true" style="position: absolute; width: 0; height: 0; overflow: hidden;" version="1.1" xmlns="http://www.w3.org/2000/svg" xmlns:xlink="http://www.w3.org/1999/xlink">
<defs>
<symbol id="icon-pencil" viewBox="0 0 32 32">
<path fill="none" stroke="#9ebbff" style="stroke: var(--color1, #9ebbff)" stroke-linejoin="round" stroke-linecap="round" stroke-miterlimit="4" stroke-width="2" d="M22.483 5.983l2.249-2.251c0.469-0.469 1.105-0.732 1.768-0.732s1.299 0.263 1.768 0.732c0.469 0.469 0.732 1.105 0.732 1.768s-0.263 1.299-0.732 1.768l-14.159 14.159c-0.705 0.705-1.574 1.222-2.529 1.507l-3.58 1.067 1.067-3.58c0.284-0.955 0.802-1.824 1.507-2.529l11.909-11.908zM22.483 5.983l3.517 3.517M24 18.667v6.333c0 0.796-0.316 1.559-0.879 2.121s-1.326 0.879-2.121 0.879h-14c-0.796 0-1.559-0.316-2.121-0.879s-0.879-1.326-0.879-2.121v-14c0-0.796 0.316-1.559 0.879-2.121s1.326-0.879 2.121-0.879h6.333"></path>
</symbol>
<symbol id="icon-arow-up" viewBox="0 0 32 32">
<path fill="none" stroke="#407bff" style="stroke: var(--color2, #407bff)" stroke-linejoin="round" stroke-linecap="round" stroke-miterlimit="4" stroke-width="2" d="M4 22v3c0 0.796 0.316 1.559 0.879 2.121s1.326 0.879 2.121 0.879h18c0.796 0 1.559-0.316 2.121-0.879s0.879-1.326 0.879-2.121v-3M10 10l6-6M16 4l6 6M16 4v18"></path>
</symbol>
<symbol id="icon-bar" viewBox="0 0 32 32">
<path fill="none" stroke="#407bff" style="stroke: var(--color2, #407bff)" stroke-linejoin="round" stroke-linecap="round" stroke-miterlimit="4" stroke-width="1.6" d="M5 4v15c0 0.796 0.316 1.559 0.879 2.121s1.326 0.879 2.121 0.879h3M5 4h-2M5 4h22M11 22h10M11 22l-1.333 4M27 4h2M27 4v15c0 0.796-0.316 1.559-0.879 2.121s-1.326 0.879-2.121 0.879h-3M21 22l1.333 4M9.667 26h12.667M9.667 26l-0.667 2M22.333 26l0.667 2M12 15v2M16 12v5M20 9v8"></path>
</symbol>
<symbol id="icon-calendar" viewBox="0 0 32 32">
<path fill="none" stroke="#407bff" style="stroke: var(--color2, #407bff)" stroke-linejoin="round" stroke-linecap="round" stroke-miterlimit="4" stroke-width="1.6" d="M9 4v3M23 4v3M4 25v-15c0-0.796 0.316-1.559 0.879-2.121s1.326-0.879 2.121-0.879h18c0.796 0 1.559 0.316 2.121 0.879s0.879 1.326 0.879 2.121v15M4 25c0 0.796 0.316 1.559 0.879 2.121s1.326 0.879 2.121 0.879h18c0.796 0 1.559-0.316 2.121-0.879s0.879-1.326 0.879-2.121M4 25v-10c0-0.796 0.316-1.559 0.879-2.121s1.326-0.879 2.121-0.879h18c0.796 0 1.559 0.316 2.121 0.879s0.879 1.326 0.879 2.121v10M16 17h0.011v0.011h-0.011v-0.011zM16 20h0.011v0.011h-0.011v-0.011zM16 23h0.011v0.011h-0.011v-0.011zM13 20h0.011v0.011h-0.011v-0.011zM13 23h0.011v0.011h-0.011v-0.011zM10 20h0.011v0.011h-0.011v-0.011zM10 23h0.011v0.011h-0.011v-0.011zM19 17h0.011v0.011h-0.011v-0.011zM19 20h0.011v0.011h-0.011v-0.011zM19 23h0.011v0.011h-0.011v-0.011zM22 17h0.011v0.011h-0.011v-0.011zM22 20h0.011v0.011h-0.011v-0.011z"></path>
</symbol>
<symbol id="icon-close" viewBox="0 0 32 32">
<path   stroke-linejoin="round" stroke-linecap="round" stroke-miterlimit="4" stroke-width="2" d="M8 24l16-16M8 8l16 16"></path>
</symbol>
<symbol id="icon-logo" viewBox="0 0 27 32">
<path fill="#9ebbff" style="fill: var(--color1, #9ebbff)" d="M10.546 4.879c0.449-0.353 1.016 0.412 1.076 1.118s-0.568 2.295-2.331 2.707c-1.763 0.412-1.972 1.501-1.913 2.148s-0.239 1.354-0.867 1.207-0.687-1.118-0.12-2.031c0.568-0.913 2.002-1.736 2.241-2.237s0.060-1.089 0.538-1.295c0.478-0.206 1.106 0.324 1.046 0.824 0 0 0.478-0.471 0.418-1.177-0.039-0.464-0.315-1.088-0.090-1.265z"></path>
<path fill="#9ebbff" style="fill: var(--color1, #9ebbff)" d="M22.141 9.176c0.166-0.472 1.345-0.206 1.614 0.441s0.179 1.148 0.448 1.589-0.478 1.177-1.031 1.089c-0.553-0.088-0.344-1.089-0.344-1.53s-0.956-0.824-0.687-1.589z"></path>
<path fill="#9ebbff" style="fill: var(--color1, #9ebbff)" d="M18.406 3.618c0.409-0.36 1.285 0.26 1.524 0.76s0.030 1.824-0.702 1.795c-0.732-0.029-0.441-1.065-0.702-1.28-0.463-0.382-0.448-0.986-0.119-1.275z"></path>
<path fill="#9ebbff" style="fill: var(--color1, #9ebbff)" d="M13.361 0.553c0.29 0.449 0.074 1.059-0.663 1.197s-0.877-0.471-1.275-0.334c-0.399 0.138-0.837 0.235-1.016-0.079s0.020-0.785 0.817-0.785 1.605-0.824 2.137 0z"></path>
<path fill="#9ebbff" style="fill: var(--color1, #9ebbff)" d="M8.724 4.843c0.347 0 0.627-0.298 0.627-0.666s-0.281-0.666-0.627-0.666c-0.347 0-0.628 0.298-0.628 0.666s0.281 0.666 0.628 0.666z"></path>
<path fill="#9ebbff" style="fill: var(--color1, #9ebbff)" d="M6.002 7.047c-0.223-0.111-0.954 1.039-0.456 1.177s0.812-1.001 0.456-1.177z"></path>
<path fill="#9ebbff" style="fill: var(--color1, #9ebbff)" d="M4.052 10.46c0 0 0.976 0.53 0.618 1.618s-1.135 0.952-1.375 0.618c-0.239-0.334-0.239-0.785 0.159-1.099s0.598-1.137 0.598-1.137z"></path>
<path fill="#9ebbff" style="fill: var(--color1, #9ebbff)" d="M24.771 16.326c0 0 0.299 0.442 0.15 1.236s-0.388 2.354 0.448 2.796c0.836 0.442 1.165-1.118 0.837-1.589s0.179-2.090-1.435-2.443z"></path>
<path fill="#9ebbff" style="fill: var(--color1, #9ebbff)" d="M25.832 23.418c0.355 0 0.643-0.343 0.643-0.765s-0.288-0.765-0.643-0.765-0.643 0.343-0.643 0.765c0 0.423 0.288 0.765 0.643 0.765z"></path>
<path fill="#9ebbff" style="fill: var(--color1, #9ebbff)" d="M0.625 23.712c0.554-0.283 1.016 0.177 1.076 1.030s0.867 1.589 0.448 2.030c-0.418 0.441-0.905-1.383-1.285-1.552-0.583-0.26-1.046-1.096-0.239-1.508z"></path>
<path fill="#9ebbff" style="fill: var(--color1, #9ebbff)" d="M24.157 24.565c-0.522 0.53 0.173 1.078-1.059 2.472-0.513 0.58 0.379 2.315-2.092 2.295 0 0-1.435 1.294-2.869 1.472s-2.032-0.059-3.407 0.706c-1.375 0.765-4.423-0.53-5.678-1.089s-1.733-0.618-2.808-0.618c-1.076 0-0.657-1.648-1.435-2.354s-1.674-1-1.734-1.647c-0.060-0.647-0.657-0.942-0.597-1.943s-0.956-1.295-1.076-2.531 0.537-1.471 0.298-2.177c-0.239-0.706-0.298-1.295 0.060-2.001 0.043-0.086 0.092-0.168 0.148-0.245 0.307-0.431 0.602-0.398 0.808-1.108 0.239-0.824-0.418-1.177 0.299-1.53s0.956 0.706 0.538 1.765c-0.419 1.060-0.957 2.060-0.239 2.236s0.538-2.001 1.495-3.002c0.956-1.001 0.538-1.235 1.793-2.236s1.375-0.588 1.793-1.648c0.418-1.060 1.599-2.177 2.803-2.707s1.741-0.765 1.561-1.648c-0.18-0.883 0.823-0.883 0.86-1.825s-0.801-1.589-1.518-1.354-1.435 0.235-1.195-0.529c0.239-0.765 1.744-0.706 2.456-0.354s1.31-0.529 2.266 0.354c0.956 0.883 2.211 1.177 2.032 3.238s-0.358 2.766 0.418 2.884c0.777 0.118 0.12-0.942 0.12-1.765s1.375-0.765 1.733-0.118c0.358 0.647-0.119 1.765 0.239 2.178s1.016 0.353 1.195 0.941c0.179 0.588-0.119 3.002 0.717 3.532s0.657-1.294 1.375-0.735c0.717 0.559 0.896 1.559 0.478 2.56-0.279 0.669-0.308 2.339-0.146 3.776 0.079 0.711 0.204 1.366 0.368 1.815 0.494 1.353 0.52 2.412-0.001 2.942z"></path>
<path fill="#c6d7ff" style="fill: var(--color3, #c6d7ff)" d="M14.249 9.565c1.569-0.488 2.887 2.212 2.34 3.372s-0.78 4.739 1.248 4.294c2.028-0.445 0.546-3.887 1.638-3.818s0.624 3.219 1.326 4.217c0.702 0.999 3.125 7.836-0.778 10.217s-9.425 2.305-11.54 0.538c-0.851-0.711-1.467-1.454-1.92-2.176-0.216-0.343-0.345-0.614-0.434-0.852-0.19-0.512-0.157-0.692-0.349-1.206-0.126-0.331-0.287-0.647-0.482-0.944-0.422-0.638-0.613-0.564-1.007-1.119-0.132-0.186-0.55-0.812-0.588-1.657-0.010-0.221-0.038-0.839 0.229-0.949 0.302-0.125 0.693 0.52 1.094 0.386 0.21-0.070 0.302-0.314 0.359-0.466 0.17-0.451 0-0.73-0.082-1.399-0.063-0.517-0.138-1.139 0.17-1.664 0.050-0.086 0.196-0.367 0.679-0.629 1.698-0.922 3.222-0.077 4.332-1.767s1.132-1.801 2.174-2.245c1.042-0.444 0.106-1.673 1.588-2.134z"></path>
<path fill="#407bff" style="fill: var(--color2, #407bff)" d="M13.626 32c-1.108 0-2.655-0.447-4.679-1.349-1.233-0.55-1.671-0.596-2.704-0.596-0.817 0-0.991-0.734-1.131-1.323-0.099-0.416-0.201-0.847-0.477-1.098-0.257-0.234-0.526-0.418-0.786-0.597-0.525-0.362-0.979-0.674-1.029-1.213-0.020-0.214-0.118-0.39-0.233-0.595-0.18-0.323-0.405-0.724-0.365-1.385 0.024-0.411-0.173-0.678-0.423-1.016-0.274-0.37-0.586-0.791-0.652-1.476-0.068-0.703 0.095-1.111 0.225-1.44 0.107-0.268 0.171-0.43 0.086-0.682-0.216-0.638-0.357-1.346 0.074-2.193 0.181-0.357 0.372-0.524 0.526-0.659 0.175-0.153 0.301-0.263 0.413-0.651 0.083-0.286 0.036-0.498-0.009-0.703-0.068-0.308-0.153-0.691 0.44-0.983 0.298-0.147 0.59-0.123 0.801 0.066 0.379 0.34 0.417 1.188 0.091 2.016-0.057 0.145-0.117 0.289-0.175 0.43-0.227 0.55-0.484 1.171-0.372 1.388 0.009 0.017 0.029 0.057 0.132 0.082 0.006 0.002 0.013 0.003 0.019 0.002 0.115-0.040 0.255-0.59 0.338-0.918 0.167-0.657 0.374-1.476 0.889-2.014 0.39-0.409 0.536-0.678 0.677-0.939 0.2-0.37 0.389-0.721 1.142-1.321 0.479-0.382 0.798-0.565 1.031-0.698 0.357-0.205 0.453-0.26 0.685-0.845 0.437-1.107 1.644-2.277 2.936-2.846l0.006-0.002c1.252-0.552 1.543-0.707 1.409-1.366-0.12-0.591 0.194-0.898 0.447-1.145 0.212-0.207 0.395-0.385 0.408-0.738 0.015-0.386-0.15-0.746-0.442-0.961-0.23-0.17-0.499-0.222-0.738-0.143-0.459 0.151-1.075 0.265-1.398-0.046-0.13-0.125-0.257-0.365-0.122-0.797 0.087-0.277 0.3-0.493 0.616-0.626 0.654-0.275 1.65-0.15 2.199 0.122 0.197 0.098 0.383 0.063 0.67-0.001 0.44-0.098 0.988-0.221 1.655 0.395 0.203 0.187 0.426 0.351 0.642 0.51 0.797 0.585 1.621 1.191 1.47 2.932-0.022 0.258-0.045 0.494-0.065 0.711-0.155 1.629-0.124 1.843 0.268 1.902 0.028 0.005 0.056 0.007 0.083 0.006 0.017-0.106-0.055-0.391-0.103-0.585-0.073-0.292-0.156-0.623-0.156-0.937 0-0.409 0.255-0.717 0.681-0.824 0.51-0.128 1.242 0.060 1.533 0.585 0.217 0.392 0.181 0.89 0.149 1.329-0.023 0.319-0.049 0.68 0.060 0.805 0.111 0.128 0.278 0.203 0.454 0.283 0.291 0.131 0.653 0.296 0.792 0.75 0.065 0.213 0.075 0.57 0.087 1.020 0.023 0.827 0.058 2.077 0.523 2.371 0.085 0.054 0.133 0.061 0.149 0.056 0.068-0.020 0.166-0.228 0.224-0.353 0.111-0.239 0.238-0.51 0.508-0.574 0.164-0.039 0.337 0.012 0.514 0.15 0.801 0.625 1.019 1.744 0.556 2.854-0.384 0.919-0.251 4.104 0.226 5.41 0.549 1.5 0.529 2.608-0.057 3.203-0.136 0.138-0.151 0.263-0.171 0.531-0.033 0.433-0.078 1.025-0.879 1.931-0.1 0.113-0.124 0.357-0.149 0.615-0.069 0.698-0.172 1.746-2.038 1.767-0.324 0.276-1.611 1.307-2.934 1.47-0.407 0.050-0.75 0.068-1.053 0.084-0.765 0.040-1.318 0.068-2.259 0.592-0.324 0.18-0.733 0.271-1.231 0.271zM3.276 14.449c-0.034 0-0.081 0.010-0.146 0.042-0.237 0.117-0.231 0.146-0.169 0.425 0.050 0.228 0.12 0.541 0.001 0.949-0.153 0.528-0.363 0.712-0.565 0.889-0.14 0.122-0.271 0.238-0.409 0.508-0.329 0.648-0.261 1.172-0.046 1.809 0.144 0.426 0.023 0.731-0.095 1.026-0.116 0.293-0.248 0.625-0.192 1.208 0.053 0.548 0.309 0.894 0.556 1.227 0.273 0.369 0.556 0.751 0.521 1.342-0.031 0.516 0.131 0.806 0.303 1.112 0.13 0.233 0.265 0.473 0.294 0.792 0.028 0.306 0.374 0.544 0.812 0.845 0.261 0.179 0.557 0.383 0.84 0.64 0.391 0.356 0.517 0.886 0.628 1.354 0.158 0.664 0.259 0.934 0.632 0.934 1.072 0 1.601 0.055 2.915 0.64 3.407 1.517 4.842 1.436 5.447 1.099 1.046-0.582 1.681-0.615 2.484-0.657 0.294-0.015 0.628-0.032 1.017-0.080 1.338-0.165 2.714-1.395 2.728-1.407 0.047-0.043 0.109-0.066 0.173-0.066h0.002c1.494 0.012 1.554-0.601 1.624-1.311 0.033-0.341 0.065-0.662 0.273-0.897 0.69-0.78 0.726-1.255 0.755-1.638 0.021-0.28 0.043-0.569 0.314-0.844 0.428-0.435 0.407-1.412-0.057-2.682-0.528-1.444-0.652-4.734-0.218-5.772 0.374-0.896 0.217-1.785-0.4-2.267-0.024-0.020-0.050-0.036-0.079-0.049-0.047 0.045-0.118 0.196-0.161 0.289-0.118 0.254-0.253 0.542-0.545 0.627-0.176 0.051-0.368 0.012-0.57-0.116-0.693-0.438-0.729-1.738-0.758-2.781-0.011-0.381-0.020-0.741-0.066-0.89-0.069-0.226-0.232-0.309-0.515-0.437-0.208-0.094-0.445-0.201-0.629-0.413-0.246-0.282-0.214-0.713-0.181-1.169 0.028-0.388 0.057-0.789-0.088-1.051-0.161-0.291-0.638-0.418-0.957-0.338-0.295 0.074-0.295 0.271-0.295 0.335 0 0.253 0.075 0.553 0.141 0.817 0.11 0.44 0.205 0.821-0.014 1.057-0.12 0.13-0.303 0.177-0.541 0.141-0.918-0.139-0.845-0.91-0.7-2.447 0.020-0.215 0.043-0.451 0.065-0.707 0.127-1.461-0.487-1.913-1.266-2.485-0.228-0.167-0.463-0.34-0.686-0.546-0.469-0.433-0.789-0.362-1.192-0.271-0.301 0.067-0.643 0.143-1.014-0.041-0.439-0.218-1.274-0.316-1.768-0.109-0.176 0.074-0.287 0.179-0.328 0.311-0.044 0.141-0.047 0.251-0.009 0.288 0.068 0.065 0.357 0.1 0.879-0.072 0.401-0.131 0.841-0.052 1.207 0.219 0.426 0.315 0.668 0.832 0.647 1.384s-0.32 0.843-0.559 1.077c-0.251 0.245-0.369 0.377-0.305 0.688 0.218 1.079-0.504 1.398-1.702 1.925l-0.006 0.003c-1.16 0.511-2.282 1.591-2.668 2.569-0.285 0.721-0.472 0.851-0.904 1.098-0.218 0.125-0.518 0.297-0.966 0.654-0.671 0.535-0.829 0.827-1.012 1.166-0.149 0.276-0.319 0.59-0.756 1.048-0.423 0.442-0.612 1.19-0.764 1.791-0.089 0.352-0.166 0.656-0.278 0.882-0.219 0.444-0.533 0.442-0.7 0.4-0.272-0.067-0.403-0.224-0.464-0.343-0.218-0.422 0.048-1.063 0.355-1.806 0.057-0.139 0.116-0.28 0.172-0.423 0.281-0.712 0.203-1.316 0.042-1.461-0.011-0.010-0.024-0.018-0.038-0.024s-0.029-0.008-0.044-0.007z"></path>
<path fill="#407bff" style="fill: var(--color2, #407bff)" d="M6.676 12.268c-0.070-0-0.14-0.009-0.208-0.025-0.256-0.060-0.457-0.234-0.564-0.49-0.202-0.478-0.077-1.177 0.326-1.824 0.328-0.526 0.904-1.004 1.413-1.426 0.374-0.311 0.728-0.603 0.818-0.792 0.078-0.163 0.106-0.347 0.133-0.525 0.050-0.324 0.106-0.692 0.501-0.863 0.27-0.117 0.599-0.065 0.878 0.139 0.141 0.102 0.256 0.235 0.337 0.388 0.086-0.177 0.159-0.414 0.136-0.691-0.012-0.142-0.050-0.308-0.087-0.469-0.090-0.394-0.175-0.767 0.069-0.959 0.178-0.14 0.392-0.168 0.601-0.080 0.392 0.166 0.737 0.75 0.786 1.33 0.065 0.771-0.613 2.471-2.478 2.907-1.657 0.387-1.818 1.386-1.766 1.947 0.047 0.512-0.109 1.002-0.397 1.248-0.137 0.12-0.314 0.185-0.497 0.184zM9.398 6.64c-0.051-0-0.102 0.010-0.149 0.030-0.192 0.083-0.227 0.253-0.276 0.573-0.030 0.195-0.064 0.416-0.166 0.629-0.126 0.264-0.476 0.554-0.918 0.921-0.487 0.404-1.038 0.861-1.333 1.334-0.329 0.529-0.449 1.124-0.298 1.481 0.061 0.145 0.162 0.235 0.299 0.267 0.145 0.034 0.264 0.009 0.365-0.077 0.195-0.166 0.302-0.539 0.266-0.928-0.051-0.55 0.049-1.879 2.059-2.349 1.64-0.383 2.24-1.846 2.184-2.508-0.040-0.476-0.325-0.916-0.555-1.014-0.079-0.034-0.142-0.026-0.209 0.027-0.053 0.062 0.024 0.4 0.066 0.581 0.040 0.174 0.081 0.353 0.095 0.521 0.066 0.785-0.452 1.305-0.474 1.326-0.028 0.028-0.064 0.046-0.104 0.053s-0.080 0.001-0.116-0.016c-0.036-0.017-0.065-0.045-0.085-0.079s-0.027-0.074-0.022-0.113c0.021-0.179-0.092-0.393-0.283-0.532-0.113-0.083-0.235-0.126-0.346-0.126v-0z"></path>
<path fill="#407bff" style="fill: var(--color2, #407bff)" d="M23.269 12.491c-0.043 0-0.086-0.003-0.128-0.010-0.619-0.099-0.56-0.894-0.521-1.42 0.008-0.112 0.016-0.218 0.016-0.297 0-0.101-0.133-0.25-0.261-0.393-0.26-0.29-0.616-0.688-0.416-1.258 0.079-0.224 0.302-0.358 0.612-0.366 0.49-0.012 1.149 0.288 1.36 0.798 0.136 0.327 0.185 0.617 0.229 0.872 0.045 0.263 0.084 0.49 0.206 0.691 0.137 0.225 0.105 0.514-0.087 0.794-0.212 0.309-0.613 0.589-1.012 0.589zM22.605 9.124h-0.022c-0.067 0.002-0.226 0.016-0.26 0.112-0.118 0.336 0.058 0.568 0.341 0.884 0.184 0.205 0.357 0.399 0.357 0.643 0 0.093-0.008 0.205-0.017 0.324-0.029 0.389-0.073 0.976 0.2 1.020 0.235 0.037 0.576-0.15 0.76-0.418 0.050-0.072 0.157-0.254 0.076-0.387-0.16-0.263-0.206-0.535-0.256-0.823-0.042-0.248-0.086-0.504-0.206-0.792-0.139-0.336-0.618-0.563-0.972-0.563z"></path>
<path fill="#407bff" style="fill: var(--color2, #407bff)" d="M19.253 6.363c-0.011 0-0.022 0-0.033-0.001-0.631-0.025-0.701-0.621-0.744-0.976-0.014-0.116-0.036-0.311-0.075-0.348-0.265-0.219-0.421-0.528-0.426-0.847-0.005-0.28 0.106-0.54 0.302-0.713 0.158-0.138 0.37-0.186 0.615-0.136 0.497 0.1 1.028 0.575 1.21 0.957 0.186 0.389 0.15 1.187-0.177 1.673-0.174 0.257-0.406 0.392-0.674 0.392zM18.713 3.7c-0.074 0-0.133 0.020-0.179 0.060-0.114 0.1-0.177 0.255-0.174 0.425 0.003 0.212 0.106 0.412 0.289 0.564 0.153 0.126 0.18 0.353 0.209 0.594 0.051 0.429 0.105 0.632 0.378 0.643 0.145 0.006 0.266-0.067 0.371-0.224 0.243-0.361 0.285-1.018 0.149-1.302-0.14-0.292-0.57-0.674-0.939-0.748-0.034-0.007-0.069-0.011-0.104-0.012z"></path>
<path fill="#407bff" style="fill: var(--color2, #407bff)" d="M12.487 1.959c-0.34 0-0.556-0.147-0.721-0.26-0.156-0.107-0.205-0.13-0.28-0.104-0.288 0.099-0.963 0.332-1.246-0.164-0.057-0.098-0.086-0.208-0.086-0.321s0.031-0.223 0.089-0.32c0.094-0.159 0.347-0.426 0.98-0.426 0.243 0 0.502-0.093 0.754-0.182 0.496-0.177 1.114-0.397 1.545 0.27 0.174 0.27 0.203 0.585 0.079 0.867-0.139 0.315-0.455 0.54-0.869 0.617-0.081 0.016-0.164 0.024-0.247 0.024zM11.538 1.207c0.182 0 0.326 0.099 0.448 0.182 0.178 0.122 0.346 0.237 0.677 0.175 0.291-0.054 0.499-0.195 0.588-0.396 0.073-0.164 0.054-0.352-0.051-0.514-0.253-0.393-0.549-0.31-1.090-0.117-0.283 0.101-0.575 0.205-0.885 0.205-0.322 0-0.559 0.087-0.649 0.239-0.024 0.040-0.037 0.086-0.037 0.132s0.013 0.092 0.037 0.132c0.087 0.152 0.329 0.15 0.785-0.007 0.057-0.020 0.117-0.031 0.177-0.031z"></path>
<path fill="#407bff" style="fill: var(--color2, #407bff)" d="M8.724 5.032c-0.452 0-0.82-0.383-0.82-0.855s0.368-0.855 0.82-0.855c0.452 0 0.819 0.383 0.819 0.855s-0.368 0.855-0.819 0.855zM8.724 3.7c-0.24 0-0.436 0.214-0.436 0.477s0.195 0.477 0.436 0.477c0.24 0 0.436-0.214 0.436-0.477s-0.195-0.477-0.436-0.477z"></path>
<path fill="#407bff" style="fill: var(--color2, #407bff)" d="M5.632 8.425c-0.047-0-0.093-0.007-0.138-0.019-0.16-0.044-0.27-0.163-0.301-0.326-0.071-0.37 0.279-0.947 0.541-1.141 0.158-0.117 0.279-0.098 0.354-0.061 0.307 0.152 0.314 0.62 0.163 1.005-0.136 0.345-0.365 0.542-0.619 0.542zM5.943 7.256c-0.141 0.119-0.387 0.506-0.375 0.73 0.003 0.048 0.012 0.050 0.030 0.055 0.111 0.031 0.231-0.132 0.295-0.296 0.086-0.218 0.079-0.408 0.050-0.489z"></path>
<path fill="#407bff" style="fill: var(--color2, #407bff)" d="M3.796 13.126c-0.261 0-0.515-0.12-0.658-0.32-0.324-0.452-0.243-1.009 0.196-1.355 0.284-0.223 0.479-0.822 0.531-1.034 0.007-0.028 0.020-0.055 0.039-0.077s0.043-0.040 0.070-0.052c0.027-0.012 0.056-0.017 0.086-0.016s0.058 0.009 0.084 0.023c0.386 0.209 1.030 0.864 0.708 1.842-0.253 0.769-0.693 0.944-0.933 0.98-0.041 0.006-0.082 0.009-0.123 0.009zM4.158 10.772c-0.099 0.29-0.291 0.742-0.584 0.973-0.343 0.27-0.28 0.622-0.122 0.842 0.067 0.094 0.225 0.183 0.41 0.155 0.263-0.039 0.484-0.296 0.625-0.722 0.209-0.633-0.102-1.045-0.328-1.248v-0z"></path>
<path fill="#407bff" style="fill: var(--color2, #407bff)" d="M25.652 20.624c-0.121 0-0.247-0.033-0.374-0.1-0.905-0.478-0.745-1.939-0.546-2.997 0.132-0.7-0.118-1.093-0.12-1.097-0.021-0.031-0.032-0.068-0.032-0.106s0.012-0.075 0.034-0.106c0.022-0.031 0.052-0.055 0.088-0.069s0.075-0.017 0.112-0.009c1.27 0.278 1.369 1.283 1.435 1.948 0.024 0.243 0.047 0.472 0.116 0.572 0.283 0.405 0.179 1.306-0.199 1.721-0.146 0.16-0.323 0.241-0.513 0.241zM25.096 16.631c0.058 0.232 0.091 0.558 0.014 0.966-0.274 1.455-0.156 2.328 0.35 2.594 0.17 0.090 0.3 0.072 0.419-0.060 0.274-0.301 0.335-1.015 0.169-1.254-0.126-0.18-0.152-0.444-0.182-0.749-0.055-0.564-0.117-1.192-0.77-1.496z"></path>
<path fill="#407bff" style="fill: var(--color2, #407bff)" d="M25.832 23.607c-0.46 0-0.834-0.428-0.834-0.954s0.374-0.954 0.834-0.954 0.835 0.428 0.835 0.954c0 0.526-0.375 0.954-0.835 0.954zM25.832 22.077c-0.248 0-0.45 0.258-0.45 0.576s0.202 0.576 0.45 0.576c0.249 0 0.451-0.258 0.451-0.576s-0.202-0.576-0.451-0.576z"></path>
<path fill="#407bff" style="fill: var(--color2, #407bff)" d="M2.013 27.030c-0.017 0-0.034-0.001-0.051-0.004-0.303-0.044-0.519-0.471-0.769-0.965-0.117-0.233-0.314-0.622-0.409-0.669-0.443-0.197-0.772-0.639-0.785-1.051-0.009-0.333 0.182-0.616 0.536-0.797 0.264-0.135 0.537-0.139 0.768-0.011 0.333 0.184 0.547 0.62 0.588 1.196 0.023 0.328 0.17 0.641 0.312 0.944 0.203 0.434 0.414 0.882 0.085 1.229-0.096 0.102-0.197 0.129-0.276 0.129zM0.944 23.818c-0.072 0-0.149 0.021-0.23 0.062-0.223 0.114-0.334 0.266-0.329 0.452 0.007 0.265 0.253 0.58 0.559 0.717 0.206 0.092 0.36 0.381 0.595 0.845 0.123 0.243 0.346 0.686 0.468 0.754l0.003-0.003c0.146-0.153 0.036-0.409-0.153-0.812-0.149-0.318-0.319-0.679-0.347-1.076-0.031-0.44-0.178-0.773-0.393-0.892-0.053-0.030-0.113-0.045-0.174-0.045z"></path>
<path fill="#407bff" style="fill: var(--color2, #407bff)" d="M15.181 21.667c0.153 0.752-0.336 1.542-1.045 1.84-0.992 0.445-2.237-0.079-2.537-1.121-0.069-0.238-0.084-0.487-0.036-0.719 0.005-0.025 0.019-0.047 0.039-0.063s0.045-0.025 0.070-0.025 0.051 0.008 0.071 0.024c0.020 0.016 0.034 0.038 0.040 0.062 0.163 0.765 0.808 1.337 1.579 1.329 0.765-0.006 1.392-0.57 1.557-1.326 0.027-0.14 0.235-0.138 0.262 0l0 0z"></path>
<path fill="#fff" style="fill: var(--color4, #fff)" opacity="0.5" d="M6.593 22.817c0.692-0.13 1.115-0.942 0.946-1.814s-0.867-1.472-1.559-1.342c-0.692 0.13-1.115 0.942-0.946 1.814s0.867 1.472 1.559 1.342z"></path>
<path fill="#fff" style="fill: var(--color4, #fff)" opacity="0.5" d="M6.63 18.799c0.715 0.219 1.433-2.086 2.7-2.608s2.102-2.163 2.491-3.225c0.389-1.062 1.984-1.755 1.647-2.497s-1.796-0.145-2.656 0.985-0.476 2.31-1.773 2.809c-1.297 0.499-3.889 4.082-2.409 4.536z"></path>
<path fill="#407bff" style="fill: var(--color2, #407bff)" opacity="0.2" d="M23.504 24.485c-0.49 0.478 0.162 0.974-0.995 2.232-0.482 0.523 0.356 2.091-1.966 2.072 0 0-1.348 1.169-2.696 1.329s-1.91-0.053-3.202 0.638c-1.292 0.691-4.157-0.478-5.337-0.983s-1.629-0.558-2.639-0.558c-1.011 0-0.618-1.488-1.348-2.126s-1.573-0.903-1.629-1.487c-0.056-0.584-0.618-0.85-0.562-1.754s-0.899-1.169-1.011-2.285c-0.112-1.116 0.505-1.328 0.28-1.966s-0.28-1.169 0.056-1.806c0.040-0.077 0.087-0.152 0.139-0.222 0.014 0.362 0.035 0.723 0.16 0.947 0.13 0.232 0.301 0.446 0.381 0.697 0.204 0.645-0.252 1.301-0.318 1.971-0.123 1.24 1.040 2.2 1.836 3.192 0.708 0.883 1.216 1.969 2.216 2.547 1.113 0.644 2.556 0.478 3.775 0.040s2.331-1.123 3.573-1.5c1.437-0.438 2.978-0.445 4.485-0.37 1.086 0.054 2.325 0.096 3.080-0.643 0.434-0.425 0.608-1.027 0.727-1.607 0.228-1.114 0.314-2.252 0.255-3.388 0.132 0.245 0.263 0.491 0.394 0.737 0.074 0.642 0.192 1.234 0.346 1.638 0.465 1.222 0.489 2.178-0 2.657z"></path>
<path fill="#407bff" style="fill: var(--color2, #407bff)" d="M16.942 16.62c0.821-0.082 1.578 0.802 1.692 1.976s-0.459 2.192-1.279 2.274c-0.82 0.082-1.578-0.802-1.692-1.976s0.459-2.191 1.279-2.274z"></path>
<path fill="#fff" style="fill: var(--color4, #fff)" d="M17 17.112c0.261 0.108 0.374 0.507 0.252 0.892s-0.434 0.61-0.695 0.503c-0.261-0.108-0.374-0.507-0.251-0.892s0.434-0.61 0.695-0.503z"></path>
<path fill="#8baeff" style="fill: var(--color5, #8baeff)" d="M17.879 19.634c0.124 0.090 0.139 0.311 0.034 0.492s-0.291 0.255-0.415 0.165c-0.123-0.090-0.139-0.311-0.034-0.492s0.291-0.255 0.415-0.165z"></path>
<path fill="#407bff" style="fill: var(--color2, #407bff)" d="M9.905 16.62c-0.821-0.082-1.578 0.802-1.692 1.976s0.459 2.192 1.279 2.274c0.821 0.082 1.578-0.802 1.692-1.976s-0.459-2.191-1.279-2.274z"></path>
<path fill="#fff" style="fill: var(--color4, #fff)" d="M9.847 17.112c-0.261 0.108-0.374 0.507-0.251 0.892s0.434 0.61 0.695 0.503 0.374-0.507 0.252-0.892c-0.123-0.385-0.434-0.61-0.695-0.503z"></path>
<path fill="#8baeff" style="fill: var(--color5, #8baeff)" d="M8.968 19.634c-0.124 0.090-0.139 0.311-0.034 0.492s0.291 0.255 0.415 0.165 0.139-0.311 0.034-0.492c-0.105-0.181-0.291-0.255-0.415-0.165z"></path>
</symbol>
<symbol id="icon-plus" viewBox="0 0 32 32">
<path stroke-linejoin="round" stroke-linecap="round" stroke-miterlimit="4" stroke-width="2.6667" d="M16 8v16M24 16h-16"></path>
</symbol>
<symbol id="icon-plus-circle" viewBox="0 0 32 32">
<path fill="none" stroke="#fff" style="stroke: var(--color4, #fff)" stroke-linejoin="round" stroke-linecap="round" stroke-miterlimit="4" stroke-width="2.6667" d="M16 12v8M20 16h-8M28 16c0 1.576-0.31 3.136-0.913 4.592s-1.487 2.779-2.601 3.893c-1.114 1.114-2.437 1.998-3.893 2.601s-3.016 0.913-4.592 0.913-3.136-0.31-4.592-0.913c-1.456-0.603-2.779-1.487-3.893-2.601s-1.998-2.437-2.601-3.893c-0.603-1.456-0.913-3.016-0.913-4.592 0-3.183 1.264-6.235 3.515-8.485s5.303-3.515 8.485-3.515c3.183 0 6.235 1.264 8.485 3.515s3.515 5.303 3.515 8.485z"></path>
</symbol>
<symbol id="icon-tools" viewBox="0 0 32 32">
<path fill="none" stroke="#407bff" style="stroke: var(--color2, #407bff)" stroke-linejoin="round" stroke-linecap="round" stroke-miterlimit="4" stroke-width="1.6" d="M15.227 20.227l7.773 7.773c0.667 0.645 1.56 1.003 2.488 0.995s1.816-0.379 2.472-1.036c0.656-0.656 1.028-1.544 1.036-2.472s-0.35-1.821-0.995-2.488l-7.836-7.836M15.227 20.227l3.328-4.040c0.423-0.512 0.987-0.835 1.611-1.021 0.733-0.219 1.551-0.251 2.324-0.187 1.042 0.090 2.090-0.095 3.039-0.536s1.766-1.121 2.371-1.975 0.975-1.851 1.076-2.893c0.1-1.041-0.074-2.091-0.504-3.045l-4.368 4.369c-0.731-0.169-1.399-0.54-1.93-1.070s-0.901-1.199-1.070-1.93l4.368-4.368c-0.954-0.431-2.003-0.605-3.044-0.504s-2.039 0.471-2.893 1.076-1.535 1.422-1.975 2.371c-0.44 0.949-0.625 1.997-0.536 3.039 0.121 1.435-0.095 3.019-1.205 3.933l-0.136 0.113M15.227 20.227l-6.207 7.537c-0.301 0.367-0.675 0.666-1.099 0.88s-0.887 0.336-1.361 0.359c-0.474 0.023-0.947-0.053-1.39-0.224s-0.844-0.432-1.18-0.767-0.597-0.737-0.767-1.18c-0.171-0.442-0.247-0.916-0.223-1.39s0.146-0.937 0.359-1.361c0.213-0.424 0.513-0.798 0.88-1.099l9.116-7.507-5.476-5.476h-1.879l-3-5 2-2 5 3v1.879l5.68 5.68-2.327 1.916M24.5 24.5l-3.5-3.5M6.489 25.5h0.011v0.011h-0.011v-0.011z"></path>
</symbol>
<symbol id="icon-water" viewBox="0 0 32 32">
<path fill="#407bff" style="fill: var(--color2, #407bff)" d="M5.565 2.783l1.901 26.363v0.072h16.367l1.901-26.353v-0.082h-20.169zM23.161 28.479h-15.017l-1.426-19.747h0.784l1.289 17.403c0.008 0.092 0.049 0.177 0.115 0.24s0.153 0.098 0.244 0.099h0.030c0.047-0.003 0.093-0.016 0.136-0.037s0.080-0.051 0.111-0.087c0.031-0.036 0.055-0.078 0.070-0.124s0.021-0.093 0.017-0.141l-1.289-17.351h16.362l-1.426 19.747zM24.637 7.994h-16.468l-0.283-3.847c-0.009-0.094-0.052-0.181-0.122-0.244s-0.16-0.097-0.252-0.095c-0.095 0.009-0.183 0.055-0.245 0.129s-0.094 0.169-0.088 0.266l0.283 3.795h-0.794l-0.324-4.483h18.617l-0.324 4.478z"></path>
<path fill="#407bff" style="fill: var(--color2, #407bff)" d="M11.359 12.384c0.236 0 0.467-0.071 0.663-0.204s0.349-0.322 0.439-0.543c0.090-0.221 0.114-0.465 0.068-0.699s-0.16-0.45-0.327-0.62c-0.167-0.169-0.379-0.285-0.611-0.331s-0.471-0.023-0.689 0.069c-0.218 0.092-0.404 0.247-0.536 0.446s-0.201 0.433-0.201 0.672c0 0.321 0.126 0.629 0.35 0.856s0.527 0.355 0.844 0.355zM11.359 10.697c0.093 0 0.184 0.028 0.261 0.080s0.138 0.127 0.173 0.214c0.036 0.087 0.045 0.183 0.027 0.276s-0.063 0.178-0.129 0.244c-0.066 0.067-0.15 0.112-0.241 0.13s-0.186 0.009-0.272-0.027c-0.086-0.036-0.159-0.097-0.211-0.176s-0.079-0.171-0.079-0.265c0-0.127 0.050-0.248 0.138-0.337s0.208-0.14 0.332-0.14z"></path>
<path fill="#407bff" style="fill: var(--color2, #407bff)" d="M11.354 16.318c0.003 0.239 0.076 0.472 0.209 0.669s0.321 0.35 0.539 0.439c0.219 0.089 0.458 0.111 0.689 0.062s0.442-0.166 0.607-0.336c0.165-0.17 0.277-0.387 0.321-0.621s0.019-0.477-0.073-0.698c-0.091-0.22-0.245-0.408-0.442-0.54s-0.427-0.201-0.663-0.2c-0.158 0.001-0.313 0.033-0.459 0.095s-0.277 0.153-0.387 0.267-0.198 0.249-0.256 0.397c-0.059 0.148-0.088 0.307-0.086 0.467zM13.013 16.318c0 0.094-0.028 0.187-0.079 0.265s-0.125 0.14-0.211 0.176c-0.086 0.036-0.18 0.046-0.272 0.027s-0.175-0.064-0.241-0.131c-0.066-0.067-0.111-0.152-0.129-0.244s-0.009-0.188 0.027-0.276c0.036-0.087 0.096-0.162 0.173-0.214s0.168-0.080 0.261-0.080c0.125 0 0.244 0.050 0.333 0.14s0.138 0.211 0.138 0.337z"></path>
<path fill="#407bff" style="fill: var(--color2, #407bff)" d="M19.834 16.349c0.236 0 0.467-0.071 0.663-0.204s0.349-0.322 0.44-0.543c0.090-0.221 0.114-0.465 0.068-0.699s-0.16-0.45-0.326-0.62c-0.167-0.169-0.38-0.285-0.611-0.331s-0.471-0.023-0.689 0.069c-0.218 0.092-0.404 0.247-0.535 0.446s-0.201 0.433-0.201 0.672c0 0.321 0.126 0.629 0.349 0.856s0.527 0.355 0.844 0.355zM19.834 14.666c0.093 0 0.184 0.028 0.262 0.081s0.138 0.127 0.173 0.215 0.044 0.184 0.026 0.276c-0.019 0.093-0.064 0.178-0.13 0.244s-0.151 0.112-0.242 0.129c-0.092 0.018-0.186 0.008-0.272-0.029s-0.159-0.099-0.21-0.178c-0.051-0.079-0.078-0.172-0.077-0.266 0.001-0.126 0.051-0.246 0.14-0.334s0.207-0.138 0.331-0.138z"></path>
<path fill="#407bff" style="fill: var(--color2, #407bff)" d="M15.677 14.066c0.236 0 0.467-0.071 0.663-0.204s0.349-0.322 0.439-0.543c0.090-0.221 0.114-0.465 0.068-0.699s-0.16-0.45-0.327-0.62c-0.167-0.169-0.379-0.285-0.611-0.331s-0.471-0.023-0.689 0.069c-0.218 0.092-0.404 0.247-0.536 0.446s-0.201 0.433-0.201 0.672c0 0.321 0.126 0.629 0.35 0.856s0.527 0.355 0.844 0.355zM15.677 12.379c0.093 0 0.184 0.028 0.261 0.080s0.138 0.127 0.173 0.214c0.036 0.087 0.045 0.183 0.027 0.276s-0.063 0.178-0.129 0.244c-0.066 0.067-0.149 0.112-0.241 0.13s-0.186 0.009-0.272-0.027c-0.086-0.036-0.159-0.097-0.211-0.176s-0.079-0.171-0.079-0.265c-0.003-0.065 0.006-0.13 0.028-0.19s0.056-0.117 0.1-0.164c0.044-0.047 0.097-0.085 0.156-0.11s0.122-0.039 0.186-0.039v0.026z"></path>
<path fill="#407bff" style="fill: var(--color2, #407bff)" d="M13.402 20.929c0.005 0.197 0.067 0.387 0.178 0.548s0.267 0.285 0.448 0.357c0.181 0.072 0.378 0.088 0.567 0.047s0.363-0.139 0.498-0.279c0.135-0.141 0.227-0.319 0.263-0.512s0.015-0.393-0.060-0.574c-0.075-0.181-0.202-0.336-0.363-0.445s-0.351-0.167-0.545-0.167c-0.264 0.007-0.515 0.118-0.699 0.309s-0.287 0.449-0.287 0.716zM14.388 20.662c0.052 0 0.103 0.016 0.146 0.045s0.077 0.071 0.097 0.12c0.020 0.049 0.025 0.102 0.015 0.154s-0.035 0.099-0.072 0.137c-0.037 0.037-0.084 0.063-0.135 0.073s-0.104 0.005-0.152-0.015c-0.048-0.020-0.089-0.054-0.118-0.098s-0.044-0.095-0.044-0.148c0-0.071 0.028-0.139 0.077-0.189s0.116-0.078 0.186-0.078z"></path>
<path fill="#407bff" style="fill: var(--color2, #407bff)" d="M18.17 19.816c0.202 0.007 0.402-0.048 0.574-0.157s0.307-0.269 0.388-0.457c0.081-0.188 0.105-0.397 0.068-0.599s-0.133-0.388-0.276-0.534c-0.142-0.146-0.325-0.245-0.524-0.285s-0.405-0.018-0.591 0.063c-0.186 0.080-0.345 0.216-0.454 0.389s-0.166 0.375-0.161 0.58c0.006 0.261 0.111 0.511 0.292 0.697s0.426 0.294 0.684 0.304zM18.17 18.549c0.070 0 0.137 0.028 0.186 0.078s0.077 0.118 0.077 0.189-0.028 0.139-0.077 0.189c-0.049 0.050-0.116 0.078-0.186 0.078s-0.138-0.028-0.188-0.078-0.079-0.118-0.080-0.189c0-0.035 0.007-0.071 0.021-0.103s0.033-0.062 0.058-0.087c0.025-0.025 0.055-0.044 0.087-0.057s0.067-0.019 0.102-0.019z"></path>
<path fill="#407bff" style="fill: var(--color2, #407bff)" d="M20.253 11.538c0.2 0 0.396-0.060 0.562-0.173s0.296-0.273 0.372-0.46c0.077-0.187 0.097-0.394 0.058-0.593s-0.135-0.382-0.277-0.525-0.322-0.241-0.518-0.281c-0.196-0.040-0.399-0.019-0.584 0.058s-0.343 0.209-0.454 0.378c-0.111 0.169-0.17 0.367-0.17 0.57 0 0.272 0.107 0.533 0.296 0.725s0.447 0.3 0.715 0.3zM20.253 10.271c0.039-0.011 0.080-0.013 0.12-0.006s0.078 0.024 0.11 0.049c0.033 0.025 0.059 0.057 0.077 0.094s0.028 0.078 0.028 0.119c0 0.041-0.009 0.082-0.028 0.119s-0.044 0.069-0.077 0.094c-0.032 0.025-0.070 0.042-0.11 0.049s-0.081 0.006-0.12-0.006c-0.039 0.011-0.080 0.013-0.12 0.006s-0.078-0.024-0.11-0.049c-0.033-0.025-0.059-0.057-0.077-0.094s-0.028-0.078-0.028-0.119 0.009-0.082 0.028-0.119c0.018-0.037 0.044-0.069 0.077-0.094s0.070-0.042 0.11-0.049 0.081-0.006 0.12 0.006z"></path>
<path fill="#407bff" style="fill: var(--color2, #407bff)" d="M10.369 27.191c-0.045 0.021-0.086 0.052-0.119 0.089s-0.059 0.082-0.074 0.13-0.021 0.099-0.017 0.149c0.005 0.050 0.019 0.099 0.043 0.144 0.031 0.060 0.078 0.11 0.135 0.145s0.122 0.054 0.189 0.055c0.056 0.002 0.112-0.011 0.162-0.036 1.545-0.803 3.255-1.225 4.99-1.231 1.837 0.027 3.648 0.441 5.319 1.216 0.066 0.035 0.141 0.049 0.215 0.039s0.143-0.042 0.198-0.093c0.055-0.051 0.094-0.118 0.11-0.192s0.010-0.151-0.018-0.221c-0.036-0.091-0.104-0.164-0.192-0.205-1.769-0.821-3.687-1.258-5.633-1.282-1.845 0.002-3.664 0.444-5.309 1.293z"></path>
</symbol>

<symbol id="icon-eye-outline" viewBox="0 0 35 32">
<path d="M2.768 0.941c-0.304 0.186-0.451 0.653-0.298 0.955 0.091 0.182 28.971 29.069 29.163 29.171 0.224 0.12 0.571 0.104 0.798-0.034 0.304-0.186 0.451-0.654 0.298-0.957-0.035-0.070-1.098-1.165-2.362-2.434l-2.296-2.306 0.147-0.118c1.32-1.074 2.315-2.040 3.072-2.984 1.31-1.637 2.52-3.893 3.083-5.747 0.162-0.534 0.147-0.648-0.206-1.635-0.573-1.602-1.656-3.544-2.786-4.997-1.813-2.334-4.683-4.442-7.475-5.488-2.018-0.755-3.654-1.070-5.83-1.125-2.69-0.064-4.878 0.338-7.304 1.344-0.63 0.262-2.006 0.962-2.197 1.12-0.059 0.050-0.618-0.475-2.493-2.347-1.33-1.325-2.474-2.438-2.544-2.474-0.2-0.101-0.557-0.077-0.771 0.054zM19.213 4.87c2.398 0.267 4.653 1.019 6.61 2.203 3.259 1.973 5.693 4.979 6.915 8.542l0.134 0.392-0.195 0.547c-1.018 2.854-2.914 5.461-5.302 7.29l-0.453 0.347-2.403-2.402c-1.32-1.32-2.402-2.419-2.402-2.443s0.094-0.19 0.21-0.371c0.261-0.406 0.509-0.982 0.683-1.589 0.115-0.397 0.134-0.595 0.133-1.4 0-1-0.051-1.288-0.363-2.083-0.632-1.614-2.080-2.88-3.8-3.322-0.478-0.123-0.728-0.152-1.35-0.155-1.134-0.003-1.981 0.224-2.91 0.782l-0.488 0.293-2.275-2.275c-1.251-1.251-2.275-2.294-2.275-2.318s0.245-0.166 0.542-0.317c1.806-0.907 3.589-1.454 5.53-1.694 0.73-0.090 2.755-0.106 3.461-0.027zM4.416 9.254c-0.277 0.15-1 1.064-1.685 2.126-0.974 1.51-2.085 4.131-2.005 4.734 0.058 0.435 0.557 1.72 1.090 2.805 0.834 1.698 1.866 3.17 3.139 4.482 2.904 2.987 6.595 4.795 10.731 5.258 1.483 0.166 3.592 0.093 5.054-0.178 0.736-0.134 1.658-0.371 1.861-0.475 0.203-0.106 0.421-0.547 0.366-0.742-0.093-0.33-0.174-0.461-0.35-0.57-0.256-0.158-0.456-0.15-1.354 0.054-1.237 0.282-1.91 0.363-3.262 0.397-1.706 0.043-2.738-0.066-4.333-0.458-1.302-0.32-3.011-1.021-4.149-1.701-3.357-2.006-5.779-4.966-7.061-8.627l-0.136-0.39 0.251-0.69c0.6-1.643 1.418-3.078 2.648-4.646 0.344-0.44 0.406-0.683 0.254-0.994-0.211-0.432-0.67-0.598-1.061-0.386zM18.538 12.094c0.146 0.034 0.515 0.181 0.822 0.326 0.477 0.227 0.63 0.339 1.064 0.778 0.408 0.41 0.555 0.61 0.75 1.011 0.398 0.826 0.517 1.757 0.331 2.627-0.080 0.379-0.309 0.958-0.483 1.226-0.091 0.139-0.096 0.134-2.842-2.61-1.514-1.514-2.752-2.771-2.752-2.794 0-0.059 0.603-0.36 0.966-0.483 0.611-0.206 1.474-0.24 2.142-0.082z"></path>
</symbol>
<symbol id="icon-eye" viewBox="0 0 32 32">
<path d="M15.2 5.365c-3.635 0.235-6.871 1.659-9.432 4.151-1.489 1.458-2.67 3.225-3.441 5.197l-0.035 0.101c-0.396 1.048-0.396 1.327 0 2.373 1.621 4.292 5.277 7.663 9.637 8.887 1.484 0.417 2.496 0.555 4.071 0.555s2.587-0.137 4.071-0.555c4.355-1.223 7.968-4.548 9.615-8.847 0.421-1.101 0.424-1.352 0.023-2.413-1.257-3.228-3.514-5.837-6.384-7.507l-0.071-0.038c-1.545-0.898-3.355-1.532-5.285-1.789l-0.075-0.008c-0.599-0.079-2.164-0.14-2.693-0.105zM17.84 6.795c1.493 0.22 2.84 0.651 4.079 1.267l-0.079-0.035c2.666 1.318 4.777 3.421 6.071 6.003l0.035 0.077c0.381 0.776 0.748 1.703 0.748 1.889 0 0.373-0.899 2.315-1.496 3.231-2.16 3.315-5.557 5.453-9.544 6.008-0.292 0.040-0.993 0.071-1.653 0.071s-1.361-0.031-1.653-0.071c-4.529-0.631-8.312-3.328-10.295-7.341-0.371-0.749-0.745-1.703-0.745-1.895 0-0.183 0.373-1.125 0.748-1.892 1.098-2.19 2.703-3.982 4.668-5.273l0.051-0.031c1.604-1.047 3.717-1.813 5.573-2.025 0.279-0.032 0.579-0.068 0.667-0.080 0.337-0.047 2.317 0.021 2.827 0.097zM15.013 11.448c-0.906 0.203-1.687 0.652-2.293 1.271l-0.001 0.001c-0.913 0.913-1.36 1.992-1.36 3.28s0.447 2.367 1.36 3.28 1.992 1.36 3.28 1.36 2.367-0.447 3.28-1.36 1.36-1.992 1.36-3.28-0.447-2.367-1.36-3.28c-0.614-0.631-1.409-1.082-2.301-1.271l-0.030-0.005c-0.511-0.104-1.435-0.103-1.936 0.004zM16.88 12.783c0.528 0.132 1.023 0.425 1.468 0.869 0.672 0.672 0.972 1.396 0.972 2.348s-0.3 1.676-0.972 2.348-1.396 0.972-2.348 0.972-1.676-0.3-2.348-0.972-0.972-1.396-0.972-2.348 0.3-1.676 0.972-2.348c0.873-0.873 1.997-1.176 3.228-0.869z"></path>

<symbol id="icon-Sign_in_def_logo" viewBox="0 0 32 32">
<path stroke-linejoin="miter" stroke-linecap="butt" stroke-miterlimit="4" stroke-width="1.1429" d="M31.429 16c0 8.521-6.908 15.429-15.429 15.429s-15.429-6.908-15.429-15.429c0-8.521 6.908-15.429 15.429-15.429s15.429 6.908 15.429 15.429z"></path>
<path stroke-linejoin="round" stroke-linecap="round" stroke-miterlimit="4" stroke-width="1.1429" d="M20.001 9.436c0 1.088-0.422 2.132-1.172 2.901s-1.768 1.202-2.829 1.202c-1.061 0-2.079-0.432-2.829-1.202s-1.172-1.813-1.172-2.901c0-1.088 0.421-2.132 1.172-2.901s1.768-1.202 2.829-1.202c1.061 0 2.079 0.432 2.829 1.202s1.172 1.813 1.172 2.901zM8 24.881c0.034-2.153 0.892-4.205 2.389-5.715s3.512-2.356 5.611-2.356 4.115 0.846 5.611 2.356c1.497 1.51 2.355 3.563 2.389 5.715-2.51 1.18-5.239 1.789-8 1.785-2.855 0-5.564-0.639-8-1.785z"></path>

</symbol>
<symbol id="icon-arrow-down" viewBox="0 0 32 32">
<path fill="#407bff" style="fill: var(--color1, #407bff)" d="M16.707 21.707c-0.188 0.187-0.442 0.293-0.707 0.293s-0.519-0.105-0.707-0.293l-10-10c-0.177-0.19-0.273-0.44-0.268-0.699s0.11-0.506 0.293-0.689c0.183-0.183 0.43-0.288 0.689-0.293s0.51 0.092 0.699 0.268l9.293 9.293 9.293-9.293c0.092-0.098 0.202-0.177 0.325-0.232s0.255-0.084 0.389-0.086c0.134-0.002 0.268 0.022 0.392 0.073s0.238 0.125 0.332 0.22c0.095 0.095 0.17 0.208 0.22 0.333s0.075 0.258 0.073 0.392-0.032 0.267-0.086 0.389c-0.055 0.123-0.133 0.233-0.232 0.325l-10 10z"></path>
</symbol>
<symbol id="icon-gear_settings" viewBox="0 0 32 32">
<path fill="#407bff" style="fill: var(--color1, #407bff)" d="M13.613 3.437c-0.507 0.16-1.016 0.597-1.257 1.081-0.152 0.301-0.204 0.519-0.384 1.609-0.076 0.452-0.163 0.872-0.195 0.933-0.171 0.335-0.805 0.755-1.223 0.809-0.201 0.027-0.364-0.019-1.141-0.311-1.041-0.393-1.304-0.467-1.672-0.467-0.552 0-1.285 0.339-1.604 0.741-0.192 0.243-1.825 3.051-2.048 3.521-0.317 0.671-0.233 1.559 0.203 2.149 0.103 0.137 0.528 0.536 0.947 0.885 0.895 0.747 0.987 0.84 1.056 1.080 0.067 0.235 0.067 0.824 0 1.059-0.069 0.24-0.161 0.333-1.056 1.080-0.419 0.349-0.844 0.748-0.947 0.885-0.417 0.567-0.517 1.468-0.229 2.096 0.196 0.428 1.784 3.175 2.020 3.495 0.465 0.629 1.392 0.953 2.173 0.76 0.139-0.035 0.659-0.216 1.157-0.405 0.777-0.292 0.94-0.337 1.141-0.311 0.417 0.055 1.052 0.475 1.223 0.809 0.032 0.061 0.119 0.481 0.195 0.933 0.075 0.452 0.163 0.941 0.195 1.088 0.141 0.637 0.597 1.203 1.209 1.504l0.304 0.149h4.64l0.304-0.149c0.612-0.301 1.068-0.867 1.209-1.504 0.032-0.147 0.12-0.636 0.195-1.088 0.076-0.452 0.163-0.872 0.195-0.933 0.171-0.335 0.805-0.755 1.223-0.809 0.201-0.027 0.364 0.019 1.141 0.311 0.499 0.189 1.019 0.371 1.157 0.405 0.781 0.193 1.708-0.131 2.173-0.76 0.236-0.32 1.824-3.067 2.020-3.495 0.296-0.645 0.185-1.571-0.252-2.125-0.115-0.144-0.541-0.539-0.947-0.877-0.872-0.725-0.964-0.82-1.033-1.059-0.067-0.235-0.067-0.824 0-1.059 0.069-0.24 0.161-0.333 1.056-1.080 0.419-0.349 0.844-0.748 0.947-0.885 0.417-0.567 0.517-1.468 0.229-2.096-0.196-0.428-1.784-3.175-2.020-3.495-0.465-0.629-1.392-0.953-2.173-0.76-0.139 0.035-0.659 0.216-1.157 0.405-0.777 0.292-0.94 0.337-1.141 0.311-0.417-0.055-1.052-0.475-1.223-0.809-0.032-0.061-0.119-0.481-0.195-0.933-0.075-0.452-0.163-0.941-0.195-1.088-0.141-0.637-0.597-1.203-1.209-1.504l-0.304-0.149-2.24-0.011c-1.755-0.009-2.289 0.004-2.467 0.061zM18.128 4.773c0.332 0.196 0.375 0.305 0.573 1.472 0.219 1.289 0.343 1.615 0.784 2.039 0.368 0.355 1.083 0.756 1.551 0.871 0.52 0.129 0.912 0.059 2.075-0.375 1.013-0.377 1.241-0.415 1.509-0.251 0.24 0.145 0.333 0.288 1.292 1.955 0.78 1.356 0.861 1.521 0.861 1.749 0 0.139-0.036 0.32-0.079 0.404-0.044 0.084-0.457 0.464-0.92 0.844-1.265 1.041-1.421 1.317-1.421 2.519s0.156 1.477 1.421 2.519c0.463 0.38 0.876 0.76 0.92 0.844 0.043 0.084 0.079 0.265 0.079 0.403 0 0.227-0.083 0.395-0.861 1.749-0.963 1.673-1.053 1.812-1.292 1.956-0.268 0.164-0.496 0.127-1.509-0.251-1.163-0.433-1.555-0.504-2.075-0.375-0.468 0.115-1.183 0.516-1.551 0.871-0.441 0.424-0.565 0.749-0.784 2.039-0.199 1.167-0.241 1.276-0.573 1.472-0.172 0.101-0.277 0.107-2.128 0.107-2.588 0-2.416 0.101-2.701-1.579-0.219-1.289-0.343-1.615-0.784-2.039-0.368-0.355-1.083-0.756-1.551-0.871-0.52-0.129-0.912-0.059-2.075 0.375-1.013 0.377-1.241 0.415-1.509 0.251-0.239-0.144-0.329-0.283-1.292-1.956-0.779-1.355-0.861-1.523-0.861-1.749 0-0.137 0.036-0.319 0.079-0.403 0.044-0.084 0.457-0.464 0.92-0.844 1.265-1.041 1.421-1.317 1.421-2.519s-0.156-1.477-1.421-2.519c-0.463-0.38-0.876-0.76-0.92-0.844-0.043-0.084-0.079-0.265-0.079-0.403 0-0.227 0.083-0.395 0.861-1.749 0.963-1.673 1.053-1.812 1.292-1.956 0.268-0.164 0.496-0.127 1.509 0.251 1.163 0.433 1.555 0.504 2.075 0.375 0.203-0.049 0.565-0.203 0.809-0.343 1.040-0.592 1.257-0.948 1.508-2.465 0.188-1.145 0.224-1.276 0.395-1.437 0.271-0.253 0.407-0.268 2.404-0.255 1.759 0.011 1.877 0.019 2.048 0.119zM15.013 11.448c-0.852 0.18-1.635 0.615-2.293 1.272-0.913 0.913-1.36 1.992-1.36 3.28s0.447 2.367 1.36 3.28c0.913 0.913 1.992 1.36 3.28 1.36s2.367-0.447 3.28-1.36c0.913-0.913 1.36-1.992 1.36-3.28s-0.447-2.367-1.36-3.28c-0.672-0.671-1.449-1.097-2.331-1.276-0.511-0.104-1.435-0.103-1.936 0.004zM16.88 12.783c0.528 0.132 1.023 0.425 1.468 0.869 0.672 0.672 0.972 1.396 0.972 2.348s-0.3 1.676-0.972 2.348c-0.672 0.672-1.396 0.972-2.348 0.972s-1.676-0.3-2.348-0.972c-0.672-0.672-0.972-1.396-0.972-2.348s0.3-1.676 0.972-2.348c0.873-0.873 1.997-1.176 3.228-0.869z"></path>
</symbol>
<symbol id="icon-logout" viewBox="0 0 32 32">
<path fill="#407bff" style="fill: var(--color1, #407bff)" d="M9.032 3.465c-1.18 0.312-2.167 1.267-2.535 2.455l-0.124 0.4v19.413l0.145 0.427c0.365 1.079 1.295 1.997 2.361 2.335l0.373 0.119h9.493l0.373-0.119c1.065-0.337 1.949-1.207 2.343-2.301l0.164-0.46 0.016-2.929c0.012-2.161-0.001-2.969-0.047-3.081-0.147-0.353-0.677-0.487-0.981-0.247-0.295 0.231-0.295 0.235-0.295 3.207 0 2.552-0.007 2.761-0.101 3.035-0.292 0.849-1.028 1.464-1.899 1.588-0.496 0.069-8.144 0.069-8.64 0-0.871-0.124-1.607-0.739-1.899-1.588-0.099-0.284-0.101-0.604-0.101-9.717s0.003-9.433 0.101-9.717c0.292-0.849 1.028-1.464 1.899-1.588 0.496-0.069 8.144-0.069 8.64 0 0.871 0.124 1.607 0.739 1.899 1.588 0.095 0.273 0.101 0.483 0.101 3.035 0 2.972 0 2.976 0.295 3.207 0.304 0.24 0.835 0.107 0.981-0.247 0.045-0.112 0.059-0.919 0.047-3.081l-0.017-2.929-0.144-0.427c-0.359-1.061-1.268-1.969-2.335-2.335l-0.347-0.119-4.693-0.011c-4.451-0.011-4.713-0.007-5.075 0.089zM24.595 11.495c-0.212 0.179-0.301 0.448-0.225 0.679 0.039 0.117 0.536 0.652 1.524 1.64 0.807 0.807 1.467 1.484 1.467 1.507 0 0.021-3.519 0.040-7.819 0.040h-7.819l-0.181 0.181c-0.16 0.16-0.181 0.215-0.181 0.459s0.021 0.299 0.181 0.459l0.181 0.181h7.819c4.3 0 7.819 0.019 7.819 0.040 0 0.023-0.66 0.7-1.467 1.507-1.559 1.559-1.633 1.656-1.52 1.999 0.096 0.292 0.329 0.455 0.655 0.455h0.273l2.1-2.093c1.155-1.151 2.135-2.159 2.176-2.237s0.076-0.219 0.076-0.309c0-0.091-0.035-0.231-0.076-0.309s-1.021-1.085-2.176-2.237l-2.1-2.093h-0.273c-0.215 0-0.308 0.029-0.433 0.135z"></path>
</symbol>


<!-- <symbol id="icon-plus" viewBox="0 0 32 32">
<path stroke-linejoin="round" stroke-linecap="round" stroke-miterlimit="4" stroke-width="1.3333" d="M16 8v16M24 16h-16"></path>
</symbol> -->

<symbol id="icon-minus" viewBox="0 0 32 32">
<path fill="#407bff" style="fill: var(--color1, #407bff)" d="M7 16c0-0.265 0.105-0.52 0.293-0.707s0.442-0.293 0.707-0.293h16c0.265 0 0.52 0.105 0.707 0.293s0.293 0.442 0.293 0.707-0.105 0.52-0.293 0.707c-0.187 0.188-0.442 0.293-0.707 0.293h-16c-0.265 0-0.52-0.105-0.707-0.293s-0.293-0.442-0.293-0.707z"></path>
</symbol>

<symbol id="icon-delete" viewBox="0 0 32 32">
<path fill="none" stroke="#ef5050" style="stroke: var(--color1, #ef5050)" stroke-linejoin="round" stroke-linecap="round" stroke-miterlimit="4" stroke-width="2" d="M19.653 12l-0.461 12M12.808 24l-0.461-12M25.637 7.72c0.456 0.069 0.909 0.143 1.363 0.221M25.637 7.72l-1.424 18.511c-0.058 0.754-0.399 1.458-0.953 1.971s-1.283 0.799-2.039 0.798h-10.443c-0.756 0-1.484-0.285-2.039-0.798s-0.895-1.217-0.953-1.971l-1.424-18.511M25.637 7.72c-1.539-0.233-3.086-0.409-4.637-0.529M6.363 7.72c-0.456 0.068-0.909 0.141-1.363 0.22M6.363 7.72c1.539-0.233 3.086-0.409 4.637-0.529M21 7.191v-1.221c0-1.573-1.213-2.885-2.787-2.935-1.475-0.047-2.951-0.047-4.427 0-1.573 0.049-2.787 1.363-2.787 2.935v1.221M21 7.191c-3.328-0.257-6.672-0.257-10 0"></path>
</symbol>

<symbol id="icon-mail" viewBox="0 0 32 32" width="40px" height="40px">
<path fill="#9EBBFF" style="fill: var(--color1, #9EBBFF)" d="M1.575 0h28.85c0.875 0 1.575 0.7 1.575 1.575v28.85c0 0.875-0.7 1.575-1.575 1.575h-28.85c-0.875 0-1.575-0.7-1.575-1.575v-28.85c0-0.875 0.7-1.575 1.575-1.575z"></path>
<path fill="#fff" style="fill: var(--color2, #fff)" d="M16.031 17.894l9.269-8.044h-18.538l9.269 8.044zM13.525 17.019l2.506 2.038 2.45-2.038 6.762 5.831h-18.481l6.762-5.831zM6.181 22.206v-11.713l6.756 5.825-6.756 5.887zM25.881 22.206v-11.713l-6.762 5.831 6.762 5.881z"></path>

</symbol>

<symbol id="icon-bottle" viewBox="0 0 17 32">
<path fill="#407bff" style="fill: var(--color1, #407bff)" opacity="0.3" d="M13.793 17.685c0.248-0.167 0.45-0.392 0.59-0.656s0.211-0.558 0.21-0.857l-0.042-7.916c-0.002-0.407-0.089-0.809-0.255-1.18s-0.409-0.704-0.711-0.976l-2.175-1.955c-0.12-0.108-0.216-0.24-0.282-0.387s-0.101-0.307-0.102-0.468l-0.005-1.159-5.183 0.027 0.005 1.159c0.001 0.161-0.032 0.321-0.096 0.469s-0.159 0.281-0.278 0.39l-2.154 1.98c-0.299 0.276-0.538 0.611-0.701 0.984s-0.245 0.776-0.243 1.183l0.041 7.916c0.001 0.298 0.077 0.591 0.219 0.853s0.347 0.485 0.596 0.649c-0.248 0.166-0.45 0.392-0.59 0.656s-0.211 0.558-0.209 0.857l0.053 10.094c0.003 0.48 0.196 0.939 0.537 1.276s0.802 0.526 1.282 0.523l8.556-0.046c0.238-0.001 0.473-0.049 0.692-0.141s0.418-0.226 0.585-0.395c0.167-0.169 0.299-0.369 0.389-0.589s0.135-0.456 0.134-0.693l-0.053-10.094c-0.001-0.298-0.075-0.592-0.217-0.854s-0.346-0.486-0.595-0.65z"></path>
<path fill="#407bff" style="fill: var(--color1, #407bff)" opacity="0.3" d="M5.839 2.159l0.005 0.894 5.182-0.027-0.005-0.894-5.182 0.027z"></path>
<path fill="#fff" style="fill: var(--color2, #fff)" opacity="0.3" d="M13.554 6.309l-2.175-1.957c0 0-1.277 0.168-0.144 1.652 0.965 1.255 2.425 0.919 2.319 0.305z"></path>
<path fill="#407bff" style="fill: var(--color1, #407bff)" opacity="0.2" d="M2.483 29.343c0.003 0.48 0.196 0.939 0.537 1.276s0.802 0.526 1.282 0.523l8.556-0.046c0.238-0.001 0.473-0.049 0.692-0.141s0.418-0.226 0.585-0.395c0.167-0.169 0.299-0.369 0.389-0.589s0.135-0.456 0.134-0.693l-12.176 0.064z"></path>
<path fill="#407bff" style="fill: var(--color1, #407bff)" opacity="0.3" d="M13.199 6.526c0.243 0.219 0.437 0.486 0.571 0.784s0.204 0.621 0.206 0.948l0.042 7.917c0.001 0.204-0.049 0.404-0.144 0.584s-0.234 0.333-0.403 0.447l-0.715 0.482 0.72 0.475c0.17 0.112 0.31 0.264 0.407 0.442s0.149 0.379 0.15 0.582l0.053 10.094c0.002 0.327-0.126 0.642-0.356 0.874s-0.542 0.365-0.87 0.368l-8.556 0.046c-0.162 0.001-0.324-0.029-0.474-0.090s-0.288-0.151-0.404-0.265c-0.116-0.114-0.208-0.25-0.271-0.399s-0.097-0.31-0.098-0.473l-0.053-10.094c-0.001-0.204 0.048-0.404 0.143-0.584s0.233-0.334 0.402-0.447l0.715-0.482-0.715-0.475c-0.17-0.112-0.31-0.264-0.407-0.442s-0.149-0.379-0.15-0.582l-0.041-7.916c-0.002-0.327 0.065-0.65 0.196-0.95s0.322-0.569 0.563-0.79c0.72-0.56 2.832 0.493 5.196 0.48s3.78-0.737 4.292-0.532z"></path>
<path fill="#407bff" style="fill: var(--color1, #407bff)" opacity="0.2" d="M8.902 7.059c-2.363 0.014-4.477-1.041-5.197-0.481 1.401 0.618 2.968 0.94 5.199 0.928s4.295-0.981 4.295-0.981c-0.512-0.204-1.934 0.522-4.297 0.534z"></path>
<path fill="#407bff" style="fill: var(--color1, #407bff)" opacity="0.2" d="M2.414 16.239c0.001 0.298 0.077 0.591 0.219 0.853s0.347 0.485 0.596 0.649l10.564-0.059c0.248-0.167 0.45-0.392 0.59-0.656s0.211-0.558 0.21-0.857l-12.179 0.069z"></path>
<path fill="#407bff" style="fill: var(--color1, #407bff)" d="M11.005 0.715l-5.167 0.026c-0.216 0.001-0.391 0.177-0.39 0.394l0.007 1.257c0.001 0.216 0.178 0.391 0.394 0.39l5.167-0.026c0.216-0.001 0.391-0.177 0.39-0.394l-0.007-1.257c-0.001-0.216-0.178-0.391-0.394-0.39z"></path>
<path fill="#fff" style="fill: var(--color2, #fff)" opacity="0.2" d="M6.093 2.566c-0.006 0-0.013-0.001-0.018-0.003s-0.011-0.006-0.016-0.010c-0.005-0.004-0.008-0.010-0.011-0.016s-0.004-0.012-0.004-0.018l-0.012-1.52c-0-0.013 0.005-0.025 0.014-0.034s0.021-0.014 0.034-0.014c0.013-0 0.025 0.005 0.034 0.014s0.014 0.021 0.014 0.034l0.008 1.52c0 0.012-0.004 0.024-0.012 0.033s-0.019 0.015-0.032 0.016z"></path>
<path fill="#fff" style="fill: var(--color2, #fff)" opacity="0.2" d="M7.030 2.561c-0.006 0-0.013-0.001-0.018-0.003s-0.011-0.006-0.016-0.010c-0.005-0.004-0.008-0.010-0.011-0.016s-0.004-0.012-0.004-0.018l-0.008-1.52c0-0.013 0.005-0.025 0.014-0.034s0.021-0.014 0.034-0.015c0.006-0 0.013 0.001 0.018 0.003s0.011 0.006 0.016 0.010c0.004 0.004 0.008 0.010 0.010 0.016s0.003 0.012 0.003 0.018l0.005 1.52c-0 0.012-0.005 0.024-0.013 0.032s-0.019 0.014-0.031 0.016z"></path>
<path fill="#fff" style="fill: var(--color2, #fff)" opacity="0.2" d="M7.967 2.56c-0.006 0-0.013-0.001-0.018-0.003s-0.011-0.006-0.016-0.010c-0.005-0.004-0.008-0.010-0.011-0.016s-0.004-0.012-0.004-0.018l-0.008-1.52c0-0.013 0.005-0.025 0.014-0.034s0.021-0.014 0.033-0.015c0.006-0 0.013 0.001 0.018 0.003s0.011 0.006 0.016 0.010c0.005 0.004 0.008 0.010 0.011 0.016s0.004 0.012 0.004 0.018l0.008 1.52c0 0.006-0.001 0.013-0.003 0.018s-0.006 0.011-0.010 0.016c-0.004 0.005-0.010 0.008-0.016 0.011s-0.012 0.004-0.018 0.004z"></path>
<path fill="#fff" style="fill: var(--color2, #fff)" opacity="0.2" d="M8.904 2.551c-0.006 0-0.013-0.001-0.018-0.003s-0.011-0.006-0.016-0.010c-0.005-0.004-0.008-0.010-0.011-0.016s-0.004-0.012-0.004-0.018l-0.008-1.52c0-0.013 0.005-0.025 0.014-0.034s0.021-0.014 0.034-0.015c0.006-0 0.012 0.001 0.018 0.003s0.011 0.006 0.016 0.010c0.004 0.004 0.008 0.010 0.010 0.016s0.004 0.012 0.003 0.018l0.008 1.52c0 0.006-0.001 0.013-0.003 0.018s-0.006 0.011-0.010 0.016c-0.004 0.005-0.010 0.008-0.015 0.011s-0.012 0.004-0.018 0.004z"></path>
<path fill="#fff" style="fill: var(--color2, #fff)" opacity="0.2" d="M9.836 2.546c-0.006 0-0.013-0.001-0.018-0.003s-0.011-0.006-0.016-0.010c-0.005-0.004-0.008-0.010-0.011-0.016s-0.004-0.012-0.004-0.018l-0.008-1.52c0.001-0.013 0.006-0.024 0.015-0.033s0.021-0.014 0.033-0.015c0.006-0 0.013 0.001 0.018 0.003s0.011 0.006 0.016 0.010 0.008 0.010 0.011 0.016c0.002 0.006 0.004 0.012 0.004 0.018l0.008 1.52c0 0.006-0.001 0.013-0.003 0.019s-0.006 0.011-0.010 0.016c-0.005 0.005-0.010 0.008-0.016 0.010s-0.012 0.004-0.018 0.003z"></path>
<path fill="#fff" style="fill: var(--color2, #fff)" opacity="0.2" d="M10.778 2.541c-0.006 0-0.013-0.001-0.018-0.003s-0.011-0.006-0.016-0.010c-0.005-0.004-0.008-0.010-0.011-0.016s-0.004-0.012-0.004-0.018l-0.012-1.52c0-0.013 0.005-0.025 0.014-0.034s0.021-0.014 0.034-0.015c0.013 0 0.025 0.005 0.034 0.014s0.014 0.021 0.014 0.034l0.009 1.521c-0 0.012-0.005 0.024-0.013 0.032s-0.019 0.014-0.031 0.016z"></path>
<path fill="#407bff" style="fill: var(--color1, #407bff)" opacity="0.2" d="M3.771 13.474c-0.215-0.79-1.38-0.63-1.375 0.188l0.014 2.577c0.001 0.298 0.077 0.591 0.219 0.853s0.347 0.485 0.596 0.649c-0.248 0.166-0.45 0.392-0.59 0.656s-0.211 0.558-0.209 0.857l0.053 10.094c0.003 0.48 0.196 0.939 0.537 1.276s0.802 0.526 1.282 0.523l2.211-0.012c0.244-0.001 0.484-0.059 0.702-0.168s0.408-0.266 0.555-0.46c0.147-0.194 0.248-0.419 0.295-0.658s0.037-0.486-0.027-0.721l-4.264-15.655z"></path>
<path fill="#407bff" style="fill: var(--color1, #407bff)" opacity="0.3" d="M13.367 25.858c0.001 0.185-0.053 0.367-0.155 0.521s-0.248 0.275-0.419 0.347c-0.171 0.072-0.359 0.091-0.541 0.056s-0.349-0.123-0.481-0.254c-0.132-0.13-0.222-0.297-0.259-0.478s-0.020-0.37 0.050-0.542c0.070-0.172 0.189-0.319 0.343-0.422s0.334-0.16 0.52-0.161c0.248-0.001 0.487 0.096 0.664 0.271s0.277 0.413 0.278 0.661z"></path>
<path fill="#407bff" style="fill: var(--color1, #407bff)" opacity="0.3" d="M10.083 22.503c0.001 0.131-0.037 0.259-0.11 0.369s-0.175 0.195-0.296 0.246-0.254 0.065-0.383 0.040c-0.129-0.025-0.247-0.087-0.341-0.18s-0.157-0.21-0.183-0.338c-0.026-0.128-0.014-0.262 0.036-0.383s0.134-0.225 0.243-0.299c0.109-0.073 0.237-0.113 0.368-0.114 0.176-0.001 0.345 0.068 0.469 0.192s0.196 0.292 0.197 0.467z"></path>
<path fill="#407bff" style="fill: var(--color1, #407bff)" opacity="0.3" d="M6.618 14.699c-0.13 0.017-0.262-0.004-0.38-0.062s-0.216-0.149-0.282-0.262c-0.066-0.113-0.097-0.243-0.089-0.374s0.055-0.256 0.134-0.361 0.188-0.183 0.312-0.225c0.124-0.043 0.258-0.048 0.385-0.014s0.241 0.104 0.328 0.202c0.087 0.098 0.143 0.22 0.161 0.35 0.012 0.086 0.006 0.174-0.016 0.259s-0.061 0.163-0.114 0.233c-0.053 0.069-0.119 0.128-0.194 0.172s-0.159 0.072-0.245 0.084z"></path>
<path fill="#407bff" style="fill: var(--color1, #407bff)" opacity="0.3" d="M8.073 10.593c-0.092 0.013-0.186-0.002-0.269-0.043s-0.153-0.105-0.2-0.185c-0.047-0.080-0.069-0.173-0.063-0.265s0.039-0.182 0.095-0.256c0.056-0.074 0.133-0.13 0.221-0.16s0.183-0.034 0.273-0.010c0.090 0.024 0.171 0.074 0.232 0.143s0.101 0.156 0.113 0.248c0.017 0.123-0.016 0.248-0.092 0.347s-0.186 0.164-0.309 0.181z"></path>
<path fill="#407bff" style="fill: var(--color1, #407bff)" opacity="0.3" d="M11.771 19.479c0 0.054-0.016 0.107-0.046 0.152s-0.073 0.080-0.123 0.101c-0.050 0.021-0.105 0.027-0.158 0.016s-0.102-0.036-0.141-0.074-0.065-0.087-0.076-0.14c-0.011-0.053-0.006-0.108 0.015-0.158s0.055-0.093 0.1-0.123 0.098-0.047 0.152-0.047c0.073-0 0.143 0.028 0.194 0.080s0.081 0.121 0.081 0.193z"></path>
<path fill="#fff" style="fill: var(--color2, #fff)" opacity="0.7" d="M7.48 27.379l-0.046 0.004c-0.074 0.001-0.147-0.012-0.215-0.039s-0.131-0.067-0.184-0.119c-0.052-0.051-0.093-0.112-0.121-0.179s-0.043-0.139-0.043-0.212c-0-0.108 0.030-0.213 0.089-0.304s0.142-0.162 0.241-0.206c0.098-0.044 0.207-0.058 0.314-0.041s0.205 0.065 0.285 0.137c0.080 0.073 0.136 0.167 0.163 0.271s0.023 0.214-0.011 0.316c-0.034 0.102-0.098 0.192-0.182 0.259s-0.187 0.107-0.294 0.117l0.004-0.005zM7.389 26.344c-0.109 0.010-0.21 0.057-0.289 0.133s-0.129 0.176-0.142 0.284 0.010 0.218 0.067 0.311c0.057 0.093 0.144 0.164 0.246 0.201s0.215 0.038 0.318 0.003c0.103-0.035 0.191-0.105 0.249-0.197s0.084-0.201 0.071-0.309-0.061-0.209-0.138-0.286c-0.045-0.045-0.098-0.080-0.157-0.104s-0.122-0.036-0.185-0.035l-0.040 0.002z"></path>
<path fill="#fff" style="fill: var(--color2, #fff)" opacity="0.7" d="M12.406 15.693l-0.033 0.003c-0.107 0.001-0.209-0.041-0.285-0.116s-0.119-0.177-0.12-0.284c-0.001-0.107 0.041-0.21 0.117-0.286s0.178-0.119 0.285-0.12c0.107-0.001 0.209 0.041 0.285 0.116s0.119 0.177 0.12 0.284c0 0.107-0.042 0.21-0.116 0.286-0.067 0.067-0.156 0.109-0.251 0.116zM12.040 15.294c0.001 0.065 0.021 0.129 0.058 0.183s0.089 0.096 0.15 0.12 0.127 0.030 0.191 0.017c0.064-0.013 0.123-0.045 0.168-0.092 0.031-0.031 0.055-0.068 0.071-0.108s0.025-0.084 0.024-0.127c-0-0.044-0.009-0.087-0.026-0.127s-0.042-0.077-0.073-0.107c-0.032-0.030-0.070-0.053-0.11-0.067s-0.085-0.022-0.128-0.019c-0.044 0-0.087 0.009-0.127 0.026s-0.077 0.041-0.107 0.072c-0.031 0.031-0.055 0.068-0.071 0.108s-0.025 0.083-0.024 0.127l0.003-0.005z"></path>
<path fill="#fff" style="fill: var(--color2, #fff)" opacity="0.7" d="M5.499 7.771l-0.014 0.001c-0.050-0.001-0.097-0.020-0.133-0.055s-0.056-0.082-0.057-0.132c-0.001-0.037 0.009-0.074 0.029-0.106s0.048-0.057 0.082-0.072c0.034-0.016 0.072-0.021 0.109-0.015s0.071 0.022 0.099 0.047c0.028 0.025 0.048 0.057 0.057 0.093s0.008 0.074-0.003 0.11c-0.012 0.035-0.034 0.067-0.063 0.090s-0.065 0.037-0.102 0.041l-0.005-0.001zM5.366 7.584c0 0.023 0.007 0.045 0.020 0.064s0.031 0.034 0.052 0.042c0.021 0.009 0.045 0.011 0.067 0.006s0.043-0.016 0.059-0.032c0.016-0.016 0.027-0.037 0.031-0.059s0.002-0.046-0.007-0.067c-0.009-0.021-0.024-0.039-0.043-0.052s-0.041-0.019-0.064-0.019c-0.015-0-0.031 0.003-0.045 0.009s-0.027 0.014-0.038 0.025c-0.011 0.011-0.019 0.024-0.025 0.038s-0.009 0.029-0.008 0.045z"></path>
<path fill="#fff" style="fill: var(--color2, #fff)" opacity="0.7" d="M10.152 12.345l-0.040 0.004c-0.063 0.001-0.126-0.011-0.185-0.035s-0.112-0.059-0.157-0.104c-0.045-0.045-0.081-0.098-0.105-0.156s-0.037-0.121-0.037-0.184c0-0.093 0.027-0.184 0.078-0.261s0.123-0.139 0.208-0.177 0.179-0.049 0.271-0.034c0.092 0.015 0.177 0.056 0.246 0.119s0.117 0.144 0.141 0.234 0.020 0.185-0.010 0.273c-0.030 0.088-0.084 0.166-0.157 0.223s-0.161 0.093-0.253 0.101l0.001-0.002zM10.075 11.457c-0.096 0.008-0.186 0.050-0.254 0.118-0.076 0.077-0.119 0.181-0.119 0.289 0 0.067 0.017 0.133 0.050 0.192s0.078 0.109 0.134 0.146c0.056 0.037 0.12 0.060 0.187 0.066s0.134-0.004 0.196-0.030c0.062-0.026 0.117-0.067 0.159-0.119s0.071-0.114 0.084-0.18c0.013-0.066 0.009-0.134-0.010-0.198s-0.055-0.123-0.103-0.17c-0.038-0.038-0.083-0.068-0.133-0.088s-0.103-0.030-0.157-0.030l-0.034 0.003z"></path>
<path fill="#fff" style="fill: var(--color2, #fff)" opacity="0.3" d="M14.433 16.175l-0.039-7.549c-0-0.048-0.010-0.096-0.029-0.14s-0.046-0.085-0.080-0.119c-0.034-0.034-0.075-0.061-0.12-0.079s-0.093-0.027-0.141-0.027c-0.048 0-0.096 0.010-0.14 0.028s-0.085 0.046-0.119 0.080c-0.034 0.034-0.061 0.075-0.079 0.119s-0.027 0.092-0.027 0.141l0.039 7.549c0.002 0.251-0.059 0.498-0.176 0.72s-0.288 0.411-0.496 0.551l-0.357 0.242 0.36 0.237c0.21 0.138 0.383 0.325 0.502 0.545s0.184 0.467 0.185 0.718l0.053 10.094c0.003 0.606-0.349 0.932-0.861 1.212-0.032 0.018-0.058 0.046-0.072 0.080s-0.017 0.072-0.008 0.108c0.009 0.036 0.030 0.068 0.060 0.090s0.065 0.035 0.102 0.035c0.403-0.002 0.79-0.165 1.073-0.452s0.442-0.675 0.44-1.078l-0.053-10.094c-0.001-0.251-0.065-0.498-0.185-0.718s-0.293-0.408-0.503-0.545l-0.36-0.238 0.357-0.241c0.208-0.14 0.379-0.329 0.496-0.551s0.178-0.469 0.177-0.72z"></path>
</symbol>
<symbol id="icon-barrel" viewBox="0 0 32 32">
<path fill="#9ebbff" style="fill: var(--color1, #9ebbff)" d="M3.959 27.39h6.020v0.108c0 0.814 0.325 2.061 0.325 2.061 0.38 1.519 0.759 2.169 0.759 2.169h-4.881c0 0-0.759-0.434-1.627-2.169 0 0-0.434-0.922-0.597-2.17v0zM6.183 0.271h4.881c0 0-0.651 1.302-1.247 4.285v0.054h-6.129c1.139-3.525 2.495-4.339 2.495-4.339zM2.929 8.949h6.4v0.054c-0.163 0.976-0.271 2.115-0.271 2.115-0.108 1.464-0.163 3.092-0.163 4.881 0 2.766 0.108 5.098 0.325 7.051h-6.4c-0.271-1.898-0.434-4.23-0.434-7.051 0-1.844 0.054-3.471 0.163-4.881 0.054 0 0.108-1.085 0.38-2.169v0z"></path>
<path fill="#9ebbff" style="fill: var(--color1, #9ebbff)" d="M15.946 8.949v14.102h-6.725c-0.163-1.953-0.325-4.285-0.325-7.051 0-1.79 0.054-3.417 0.163-4.881 0 0 0.108-1.193 0.271-2.115v-0.054h6.617zM15.946 0.271v4.339h-6.129v-0.054c0.597-3.037 1.247-4.285 1.247-4.285h4.881zM9.98 27.39h5.966v4.339h-1.085l-1.085-1.085-1.085 1.085h-1.627c0 0-0.325-0.651-0.759-2.169 0 0-0.325-1.247-0.325-2.061v-0.108z"></path>
<path fill="#9ebbff" style="fill: var(--color1, #9ebbff)" d="M22.075 4.556v0l-6.129 0.054v-4.339h2.712l1.085 1.085 1.085-1.085c0 0 0.651 1.302 1.247 4.285zM22.834 11.119c0.108 1.464 0.163 3.092 0.163 4.881 0 2.712-0.108 5.044-0.325 6.997v0.054h-6.725v-14.102h6.617v0.054c0.217 1.193 0.271 2.115 0.271 2.115zM15.946 27.39h5.966v0.054c-0.054 1.085-0.325 2.115-0.325 2.115-0.434 1.519-0.759 2.17-0.759 2.17h-4.881v-4.339z"></path>
<path fill="#9ebbff" style="fill: var(--color1, #9ebbff)" d="M28.149 4.61h-6.129v-0.054c-0.597-3.037-1.247-4.285-1.247-4.285h4.881c0.054 0 1.41 0.814 2.495 4.339zM22.563 8.949h6.346v0.054c0.325 0.868 0.434 2.115 0.434 2.115 0.108 1.41 0.217 3.037 0.217 4.881 0 2.82-0.163 5.153-0.434 7.051h-6.4v-0.054c0.217-1.953 0.325-4.285 0.325-6.997 0-1.79-0.054-3.417-0.163-4.881-0.054 0-0.108-0.922-0.325-2.169v0zM21.912 27.39h5.966v0.054c-0.163 1.139-0.542 2.115-0.542 2.115-0.868 1.736-1.627 2.169-1.627 2.169h-4.881c0 0 0.325-0.651 0.759-2.169-0 0 0.271-1.030 0.325-2.169v0z"></path>
<path fill="#407bff" style="fill: var(--color2, #407bff)" d="M9.22 23.051h20.827l-1.085 4.339h-26.034l-1.085-4.339h7.376zM28.963 4.61l1.085 4.339h-28.203l1.085-4.339h26.034z"></path>
<path fill="#d7e3ff" style="fill: var(--color3, #d7e3ff)" d="M22.997 25.763c0.325 0 0.542-0.217 0.542-0.542s-0.217-0.542-0.542-0.542c-0.325 0-0.542 0.217-0.542 0.542s0.217 0.542 0.542 0.542zM22.997 7.322c0.325 0 0.542-0.217 0.542-0.542s-0.217-0.542-0.542-0.542c-0.325 0-0.542 0.217-0.542 0.542s0.217 0.542 0.542 0.542zM15.946 7.322c0.325 0 0.542-0.217 0.542-0.542s-0.217-0.542-0.542-0.542-0.542 0.217-0.542 0.542c0 0.325 0.217 0.542 0.542 0.542zM8.895 7.322c0.325 0 0.542-0.217 0.542-0.542s-0.217-0.542-0.542-0.542c-0.325 0-0.542 0.217-0.542 0.542s0.217 0.542 0.542 0.542zM15.946 25.763c0.325 0 0.542-0.217 0.542-0.542s-0.217-0.542-0.542-0.542-0.542 0.217-0.542 0.542 0.217 0.542 0.542 0.542zM8.895 25.763c0.325 0 0.542-0.217 0.542-0.542s-0.217-0.542-0.542-0.542c-0.325 0-0.542 0.217-0.542 0.542s0.217 0.542 0.542 0.542z"></path>
<path fill="#d7e3ff" style="fill: var(--color3, #d7e3ff)" d="M11.064 32v0h-4.881c-0.054 0-0.109 0-0.109-0.054-0.054 0-0.868-0.488-1.736-2.278-0.054-0.108 0-0.271 0.109-0.38 0.109-0.054 0.271 0 0.38 0.108 0.651 1.356 1.302 1.898 1.464 2.007h4.393c-0.163-0.325-0.325-0.976-0.597-1.844-0.054-0.163 0.054-0.271 0.163-0.325 0.163-0.054 0.271 0.054 0.325 0.163l0.651 2.007h1.302l1.030-1.030c0.108-0.108 0.271-0.108 0.38 0l1.030 1.030h0.705v-1.844c0-0.163 0.108-0.271 0.271-0.271s0.271 0.108 0.271 0.271v1.898h4.393l0.651-2.007c0.054-0.163 0.217-0.217 0.325-0.163 0.163 0.054 0.217 0.163 0.163 0.325-0.217 0.868-0.434 1.464-0.597 1.844h4.393c0.163-0.108 0.814-0.651 1.464-2.061 0.054-0.108 0.217-0.163 0.38-0.108 0.108 0.054 0.217 0.217 0.108 0.38-0.868 1.79-1.681 2.278-1.736 2.278s-0.108 0.054-0.108 0.054h-10.847c-0.054 0-0.163-0.054-0.217-0.054l-0.868-0.868-0.868 0.868c-0.054 0.054-0.108 0.054-0.217 0.054h-1.573c0 0 0 0 0 0zM28.963 27.661h-26.034c-0.108 0-0.217-0.108-0.271-0.217l-1.085-4.339c0-0.054 0-0.163 0.054-0.217s0.109-0.108 0.217-0.108h0.651c-0.271-2.007-0.38-4.285-0.38-6.78 0-1.736 0.054-3.417 0.217-4.881 0-0.163 0.163-0.271 0.271-0.271 0.163 0 0.271 0.163 0.271 0.271-0.108 1.519-0.163 3.146-0.163 4.881 0 2.495 0.108 4.773 0.38 6.78h5.858c-0.217-2.061-0.271-4.339-0.271-6.78 0-1.681 0.054-3.363 0.163-4.881 0-0.163 0.163-0.271 0.271-0.271 0.163 0 0.271 0.163 0.271 0.271-0.108 1.519-0.163 3.2-0.163 4.881 0 2.441 0.108 4.719 0.271 6.78h6.237v-11.661c0-0.163 0.108-0.271 0.271-0.271s0.271 0.108 0.271 0.271v11.661h6.237c0.217-2.061 0.271-4.339 0.271-6.78 0-1.681-0.054-3.308-0.163-4.881 0-0.163 0.108-0.271 0.271-0.271s0.271 0.108 0.271 0.271c0.108 1.573 0.163 3.2 0.163 4.881 0 2.441-0.108 4.719-0.271 6.78h5.858c0.271-2.007 0.38-4.285 0.38-6.78 0-1.736-0.054-3.363-0.163-4.881 0-0.163 0.108-0.271 0.271-0.271s0.271 0.108 0.271 0.271c0.108 1.519 0.217 3.146 0.217 4.881 0 2.495-0.108 4.773-0.38 6.78h0.651c0.108 0 0.163 0.054 0.217 0.108s0.054 0.163 0.054 0.217l-1.085 4.339c-0.163 0.108-0.271 0.217-0.38 0.217zM3.146 27.119h25.6l0.976-3.797h-20.285c-0.054 0-0.054 0.054-0.108 0.054s-0.108 0-0.163-0.054h-6.834l0.814 3.797zM22.997 26.034c-0.434 0-0.814-0.38-0.814-0.814s0.38-0.814 0.814-0.814 0.814 0.38 0.814 0.814-0.38 0.814-0.814 0.814zM22.997 24.949c-0.163 0-0.271 0.108-0.271 0.271s0.108 0.271 0.271 0.271 0.271-0.108 0.271-0.271-0.108-0.271-0.271-0.271zM15.946 26.034c-0.434 0-0.814-0.38-0.814-0.814s0.38-0.814 0.814-0.814 0.814 0.38 0.814 0.814-0.38 0.814-0.814 0.814zM15.946 24.949c-0.163 0-0.271 0.108-0.271 0.271s0.108 0.271 0.271 0.271 0.271-0.108 0.271-0.271-0.108-0.271-0.271-0.271zM8.895 26.034c-0.434 0-0.814-0.38-0.814-0.814s0.38-0.814 0.814-0.814c0.434 0 0.814 0.38 0.814 0.814s-0.38 0.814-0.814 0.814zM8.895 24.949c-0.163 0-0.271 0.108-0.271 0.271s0.108 0.271 0.271 0.271c0.163 0 0.271-0.108 0.271-0.271s-0.108-0.271-0.271-0.271zM30.047 9.22h-28.203c-0.109 0-0.163-0.054-0.217-0.108s-0.054-0.163-0.054-0.217l1.085-4.339c0.054-0.109 0.163-0.217 0.271-0.217h0.597c1.085-3.471 2.441-4.285 2.549-4.285 0.054-0 0.108-0.054 0.108-0.054h12.475c0.054 0 0.163 0.054 0.217 0.054l0.868 0.868 0.868-0.868c0 0 0.054-0.054 0.108-0.054v0 0 0c0.054 0 0.054 0 0.108 0h4.881c0.054 0 0.108 0 0.108 0.054 0.054 0.054 1.41 0.868 2.549 4.285h0.597c0.108 0 0.217 0.109 0.271 0.217l1.085 4.339c0 0.054 0 0.163-0.054 0.217s-0.109 0.109-0.217 0.109zM2.17 8.678h27.498l-0.976-3.797h-25.6l-0.922 3.797zM22.291 4.339h5.532c-0.868-2.712-1.953-3.634-2.169-3.797h-4.393c0.217 0.597 0.651 1.79 1.030 3.797zM16.217 4.339h5.478l-1.031-3.525-0.759 0.759c-0.108 0.109-0.271 0.109-0.38 0l-1.030-1.031h-2.332v3.797h0.054zM10.197 4.339h5.478v-3.797h-4.393l-1.085 3.797zM4.068 4.339h5.532c0.38-2.007 0.814-3.2 1.030-3.797h-4.393c-0.217 0.163-1.247 1.085-2.169 3.797zM22.997 7.593c-0.434 0-0.814-0.38-0.814-0.814s0.38-0.814 0.814-0.814 0.814 0.38 0.814 0.814-0.38 0.814-0.814 0.814zM22.997 6.508c-0.163 0-0.271 0.109-0.271 0.271s0.108 0.271 0.271 0.271 0.271-0.109 0.271-0.271-0.108-0.271-0.271-0.271zM15.946 7.593c-0.434 0-0.814-0.38-0.814-0.814s0.38-0.814 0.814-0.814 0.814 0.38 0.814 0.814-0.38 0.814-0.814 0.814zM15.946 6.508c-0.163 0-0.271 0.109-0.271 0.271s0.108 0.271 0.271 0.271 0.271-0.109 0.271-0.271-0.108-0.271-0.271-0.271zM8.895 7.593c-0.434 0-0.814-0.38-0.814-0.814s0.38-0.814 0.814-0.814c0.434 0 0.814 0.38 0.814 0.814s-0.38 0.814-0.814 0.814zM8.895 6.508c-0.163 0-0.271 0.109-0.271 0.271s0.108 0.271 0.271 0.271c0.163 0 0.271-0.109 0.271-0.271s-0.108-0.271-0.271-0.271z"></path>
</symbol>

<symbol id="icon-github" viewBox="0 0 32 32">
<path d="M16 0.395c-8.836 0-16 7.163-16 16 0 7.069 4.585 13.067 10.942 15.182 0.8 0.148 1.094-0.347 1.094-0.77 0-0.381-0.015-1.642-0.022-2.979-4.452 0.968-5.391-1.888-5.391-1.888-0.728-1.849-1.776-2.341-1.776-2.341-1.452-0.993 0.11-0.973 0.11-0.973 1.606 0.113 2.452 1.649 2.452 1.649 1.427 2.446 3.743 1.739 4.656 1.33 0.143-1.034 0.558-1.74 1.016-2.14-3.554-0.404-7.29-1.777-7.29-7.907 0-1.747 0.625-3.174 1.649-4.295-0.166-0.403-0.714-2.030 0.155-4.234 0 0 1.344-0.43 4.401 1.64 1.276-0.355 2.645-0.532 4.005-0.539 1.359 0.006 2.729 0.184 4.008 0.539 3.054-2.070 4.395-1.64 4.395-1.64 0.871 2.204 0.323 3.831 0.157 4.234 1.026 1.12 1.647 2.548 1.647 4.295 0 6.145-3.743 7.498-7.306 7.895 0.574 0.497 1.085 1.47 1.085 2.963 0 2.141-0.019 3.864-0.019 4.391 0 0.426 0.288 0.925 1.099 0.768 6.354-2.118 10.933-8.113 10.933-15.18 0-8.837-7.164-16-16-16z"></path>
</symbol>

<symbol id="icon-linkedin" viewBox="0 0 32 32">
<path d="M29 0h-26c-1.65 0-3 1.35-3 3v26c0 1.65 1.35 3 3 3h26c1.65 0 3-1.35 3-3v-26c0-1.65-1.35-3-3-3zM12 26h-4v-14h4v14zM10 10c-1.106 0-2-0.894-2-2s0.894-2 2-2c1.106 0 2 0.894 2 2s-0.894 2-2 2zM26 26h-4v-8c0-1.106-0.894-2-2-2s-2 0.894-2 2v8h-4v-14h4v2.481c0.825-1.131 2.087-2.481 3.5-2.481 2.488 0 4.5 2.238 4.5 5v9z"></path>
</symbol>

<symbol id="icon-chart" viewBox="0 0 45 32">
<path d="M0.794 32c-0.439 0-0.794-0.333-0.794-0.746s0.355-0.746 0.794-0.746h3.351v-22.974c0-0.238 0.099-0.457 0.256-0.615 0.161-0.161 0.377-0.26 0.615-0.26h4.764c0.241 0 0.457 0.099 0.615 0.26 0.157 0.157 0.256 0.377 0.256 0.615v22.97h3.545v-16.307c0-0.238 0.099-0.454 0.256-0.615v0 0 0c0.157-0.157 0.377-0.256 0.611-0.256h4.764c0.245 0 0.461 0.099 0.615 0.256 0.157 0.157 0.256 0.381 0.256 0.615v16.307h3.545v-29.633c0-0.238 0.099-0.454 0.256-0.615v0 0c0.168-0.157 0.384-0.256 0.626-0.256h4.764c0.241 0 0.457 0.099 0.615 0.256v0c0.157 0.157 0.256 0.381 0.256 0.615v29.633h3.545v-21.064c0-0.238 0.099-0.457 0.256-0.615v0c0.157-0.157 0.377-0.256 0.618-0.256h4.764c0.241 0 0.461 0.099 0.615 0.256 0.157 0.157 0.256 0.377 0.256 0.615v21.067h3.351c0.439 0 0.794 0.333 0.794 0.746s-0.355 0.746-0.794 0.746h-4.123c-0.007 0-0.015 0-0.022 0h-4.917c-0.007 0-0.015 0-0.022 0h-5.093c-0.007 0-0.015 0-0.022 0h-4.917c-0.007 0-0.015 0-0.022 0h-5.089c-0.007 0-0.015 0-0.022 0h-4.921c-0.007 0-0.015 0-0.022 0h-14.178zM9.063 8.251h-3.33v22.158h3.33v-22.158zM19.117 14.913h-3.33v15.495h3.33v-15.495zM29.172 1.588h-3.33v28.82h3.33v-28.82zM39.222 10.157h-3.33v20.255h3.33v-20.255z"></path>
</symbol>
<symbol id="icon-date" viewBox="0 0 32 32">
<path d="M21.251 1.232c0-0.68 0.672-1.232 1.502-1.232s1.502 0.552 1.502 1.232v5.395c0 0.68-0.672 1.232-1.502 1.232s-1.502-0.552-1.502-1.232v-5.395zM17.215 27.513c-0.208 0-0.208-2.63 0-2.63h4.112c0.208 0 0.208 2.63 0 2.63zM4.127 17.952c-0.208 0-0.208-2.63 0-2.63h4.112c0.208 0 0.208 2.63 0 2.63zM10.671 17.952c-0.208 0-0.208-2.63 0-2.63h4.112c0.208 0 0.208 2.63 0 2.63zM17.215 17.952c-0.208 0-0.208-2.63 0-2.63h4.112c0.208 0 0.208 2.63 0 2.63zM23.761 15.322h4.101c0.208 0 0.208 2.63 0 2.63h-4.101c-0.208 0-0.208-2.63 0-2.63zM4.127 22.733c-0.208 0-0.208-2.63 0-2.63h4.112c0.208 0 0.208 2.63 0 2.63zM10.676 22.733c-0.208 0-0.208-2.63 0-2.63h4.106c0.208 0 0.208 2.63 0 2.63zM17.22 22.733c-0.208 0-0.208-2.63 0-2.63h4.106c0.208 0 0.208 2.63 0 2.63zM23.766 22.733c-0.208 0-0.208-2.63 0-2.63h4.096c0.208 0 0.208 2.63 0 2.63zM4.132 27.513c-0.208 0-0.208-2.63 0-2.63h4.106c0.208 0 0.208 2.63 0 2.63zM10.676 27.513c-0.208 0-0.208-2.63 0-2.63h4.106c0.208 0 0.208 2.63 0 2.63zM7.71 1.232c0-0.68 0.672-1.232 1.502-1.232s1.502 0.552 1.502 1.232v5.395c0 0.68-0.672 1.232-1.502 1.232s-1.502-0.552-1.502-1.232v-5.395zM1.667 11.319h28.662v-5.729c-0.002-0.21-0.087-0.4-0.224-0.539l0 0c-0.138-0.138-0.328-0.224-0.539-0.224-0 0-0 0-0 0h-2.745c-0.46 0-0.833-0.373-0.833-0.833s0.373-0.833 0.833-0.833v0h2.747c1.34 0.004 2.425 1.090 2.43 2.429v23.98c-0.004 1.34-1.090 2.425-2.429 2.429h-27.139c-1.341-0.004-2.427-1.091-2.429-2.432v-23.977c0.004-1.34 1.089-2.425 2.429-2.429h2.935c0.46 0 0.833 0.373 0.833 0.833s-0.373 0.833-0.833 0.833v0h-2.935c-0.21 0.002-0.4 0.087-0.539 0.224l0-0c-0.138 0.138-0.224 0.328-0.224 0.539 0 0 0 0 0 0v0 5.729zM30.331 12.989h-28.664v16.579c0.002 0.21 0.087 0.4 0.224 0.539l-0-0c0.138 0.138 0.328 0.224 0.539 0.224 0 0 0 0 0 0h27.138c0.21-0.002 0.4-0.087 0.539-0.224l-0 0c0.138-0.138 0.224-0.328 0.224-0.539 0-0 0-0 0-0v0-16.579zM13.132 4.828c-0.46 0-0.833-0.373-0.833-0.833s0.373-0.833 0.833-0.833v0h5.596c0.46 0 0.833 0.373 0.833 0.833s-0.373 0.833-0.833 0.833v0z"></path>
</symbol>

<symbol id="icon-question" viewBox="0 0 32 32">
<path fill="#407bff" style="fill: var(--color1, #407bff)" d="M16 0c-8.836 0-16 7.163-16 16s7.163 16 16 16 16-7.163 16-16-7.163-16-16-16zM12.98 23.675c0-1.101 0.893-1.993 1.993-1.993s1.993 0.893 1.993 1.993c0 1.1-0.893 1.993-1.992 1.993s-1.993-0.893-1.993-1.993zM21.477 13.678c-0.225 0.612-0.55 1.143-0.918 1.585-0.74 0.884-1.618 1.42-2.34 1.815-0.482 0.261-0.908 0.462-1.173 0.611-0.182 0.1-0.28 0.184-0.329 0.239-0.048 0.058-0.064 0.082-0.093 0.177-0.017 0.063-0.035 0.163-0.035 0.318 0 0.429 0 0.782 0 0.782 0 0.404-0.328 0.733-0.733 0.733h-1.766c-0.405 0-0.733-0.328-0.733-0.733 0 0 0-0.353 0-0.782 0-0.402 0.047-0.797 0.15-1.174 0.102-0.375 0.263-0.732 0.469-1.043 0.412-0.63 0.971-1.050 1.499-1.342 0.463-0.255 0.92-0.466 1.345-0.705 0.424-0.237 0.803-0.494 1.081-0.773 0.187-0.186 0.332-0.378 0.443-0.595 0.146-0.289 0.247-0.629 0.25-1.149 0.001-0.154-0.044-0.356-0.165-0.588-0.12-0.23-0.317-0.481-0.579-0.706-0.528-0.453-1.303-0.784-2.191-0.783-1.018 0.004-1.699 0.242-2.224 0.539-0.523 0.299-0.689 0.6-0.689 0.6-0.267 0.232-0.663 0.241-0.939 0.020l-1.357-1.087c-0.17-0.136-0.27-0.34-0.275-0.558s0.089-0.426 0.254-0.569c0 0 0.423-0.652 1.403-1.211 0.976-0.562 2.27-0.968 3.827-0.964 1.263 0 2.427 0.348 3.392 0.916 0.965 0.572 1.744 1.359 2.241 2.305 0.33 0.63 0.533 1.339 0.533 2.086 0.001 0.737-0.122 1.426-0.348 2.038z"></path>
</symbol>
<symbol id="icon-global" viewBox="0 0 32 32">
<path fill="#407bff" style="fill: var(--color1, #407bff)" d="M0.034 16.668c0.354 8.511 7.369 15.332 15.966 15.332s15.612-6.821 15.966-15.332c0.019-0.053 0.034-0.108 0.034-0.168 0-0.036-0.013-0.067-0.020-0.1 0.003-0.134 0.020-0.265 0.020-0.4 0-8.822-7.178-16-16-16s-16 7.178-16 16c0 0.135 0.017 0.266 0.020 0.4-0.007 0.033-0.020 0.064-0.020 0.1 0 0.060 0.015 0.115 0.034 0.168zM24.921 22.742c-1.319-0.552-2.735-0.979-4.215-1.271 0.158-1.453 0.251-2.962 0.28-4.47h4.98c-0.091 2.054-0.456 3.993-1.045 5.741zM26.965 17h3.984c-0.186 2.806-1.138 5.403-2.663 7.579-0.759-0.533-1.577-1.019-2.457-1.44 0.645-1.869 1.042-3.943 1.136-6.139zM12.389 22.286c1.178-0.184 2.387-0.286 3.611-0.286s2.433 0.102 3.61 0.286c-0.694 5.335-2.21 8.714-3.61 8.714s-2.916-3.379-3.611-8.714zM13.908 30.664c-2.751-0.882-5.078-3.471-6.482-6.984 1.246-0.525 2.586-0.935 3.99-1.217 0.459 3.496 1.298 6.542 2.492 8.201zM12.274 10.709c1.217 0.188 2.465 0.291 3.726 0.291s2.509-0.103 3.726-0.291c0.172 1.62 0.274 3.388 0.274 5.291h-8c0-1.903 0.102-3.671 0.274-5.291zM19.985 17c-0.028 1.525-0.118 2.961-0.26 4.291-1.216-0.188-2.463-0.291-3.725-0.291s-2.509 0.103-3.726 0.291c-0.173-1.626-0.237-3.057-0.26-4.291h7.971zM20.585 22.463c1.404 0.282 2.743 0.692 3.99 1.217-1.404 3.513-3.731 6.102-6.482 6.984 1.193-1.659 2.032-4.705 2.492-8.201zM21 16c0-1.836-0.102-3.696-0.294-5.47 1.48-0.292 2.896-0.72 4.215-1.271 0.684 2.029 1.079 4.315 1.079 6.741h-5zM20.585 9.537c-0.46-3.496-1.298-6.543-2.493-8.201 2.751 0.882 5.078 3.471 6.482 6.984-1.246 0.525-2.585 0.936-3.989 1.217zM19.611 9.714c-1.178 0.184-2.387 0.286-3.611 0.286s-2.433-0.102-3.611-0.286c0.695-5.335 2.211-8.714 3.611-8.714s2.916 3.379 3.611 8.714zM11.415 9.537c-1.404-0.282-2.743-0.692-3.99-1.217 1.404-3.513 3.731-6.102 6.482-6.984-1.193 1.659-2.032 4.705-2.492 8.201zM11.294 10.53c-0.192 1.774-0.294 3.634-0.294 5.47h-5c0-2.426 0.395-4.712 1.079-6.742 1.319 0.552 2.735 0.979 4.215 1.272zM11.014 17c0.029 1.508 0.122 3.017 0.28 4.471-1.48 0.292-2.896 0.72-4.215 1.271-0.589-1.748-0.954-3.687-1.045-5.742h4.98zM6.17 23.139c-0.88 0.422-1.697 0.907-2.456 1.44-1.525-2.176-2.477-4.772-2.663-7.579h3.984c0.094 2.196 0.491 4.27 1.135 6.139zM4.313 25.38c0.685-0.479 1.417-0.922 2.207-1.305 1.004 2.485 2.449 4.548 4.186 5.943-2.526-0.958-4.729-2.568-6.393-4.638zM21.294 30.017c1.738-1.394 3.182-3.458 4.186-5.943 0.79 0.384 1.522 0.826 2.207 1.305-1.664 2.071-3.867 3.681-6.393 4.638zM27 16c0-2.567-0.428-4.987-1.17-7.139 0.88-0.422 1.698-0.907 2.457-1.44 1.704 2.434 2.713 5.389 2.713 8.579h-4zM27.688 6.62c-0.685 0.479-1.417 0.921-2.207 1.305-1.004-2.485-2.449-4.549-4.186-5.943 2.525 0.958 4.728 2.568 6.393 4.638zM10.706 1.983c-1.738 1.394-3.182 3.458-4.186 5.943-0.791-0.384-1.522-0.827-2.207-1.306 1.664-2.070 3.867-3.68 6.393-4.637zM3.714 7.421c0.758 0.533 1.576 1.018 2.456 1.44-0.742 2.152-1.17 4.572-1.17 7.139h-4c0-3.19 1.009-6.145 2.714-8.579z"></path>
</symbol>

<symbol id="icon-ukraine" viewBox="0 0 32 32">
<path fill="#005bbb" style="fill: var(--color5, #005bbb)" d="M28.444 4.444h-24.889c-1.964 0-3.556 1.592-3.556 3.556v0 8h32v-8c0-1.964-1.592-3.556-3.556-3.556v0z"></path>
<path fill="#ffd500" style="fill: var(--color6, #ffd500)" d="M32 24c0 1.964-1.592 3.556-3.556 3.556v0h-24.889c-1.964 0-3.556-1.592-3.556-3.556v0-8h32v8z"></path>
</symbol>

<symbol id="icon-uk" viewBox="0 0 32 32">
<path fill="#41479b" style="fill: var(--color2, #41479b)" d="M29.603 5.517h-27.207c-1.324 0-2.397 1.073-2.397 2.397v16.172c0 1.324 1.073 2.397 2.397 2.397h27.207c1.324 0 2.397-1.073 2.397-2.397v-16.172c0-1.324-1.073-2.397-2.397-2.397z"></path>
<path fill="#f5f5f5" style="fill: var(--color3, #f5f5f5)" d="M31.967 7.518c-0.189-1.135-1.175-2-2.363-2h-0.624l-10.221 6.697v-6.697h-5.517v6.697l-10.221-6.697h-0.624c-1.189 0-2.175 0.865-2.363 2l8.736 5.724h-8.769v5.517h8.769l-8.736 5.724c0.189 1.135 1.175 2 2.363 2h0.624l10.221-6.697v6.697h5.517v-6.697l10.221 6.697h0.624c1.189 0 2.175-0.865 2.363-2l-8.736-5.724h8.769v-5.517h-8.769l8.736-5.724z"></path>
<path fill="#ff4b55" style="fill: var(--color4, #ff4b55)" d="M17.655 5.517h-3.31v8.828h-14.345v3.31h14.345v8.828h3.31v-8.828h14.345v-3.31h-14.345z"></path>
<path fill="#ff4b55" style="fill: var(--color4, #ff4b55)" d="M1.55 26.328l11.661-7.57h-2.027l-10.608 6.886c0.26 0.303 0.593 0.54 0.973 0.684z"></path>
<path fill="#ff4b55" style="fill: var(--color4, #ff4b55)" d="M21.649 18.759h-2.027l11.295 7.332c0.316-0.208 0.58-0.488 0.768-0.817l-10.036-6.514z"></path>
<path fill="#ff4b55" style="fill: var(--color4, #ff4b55)" d="M0.253 6.842l9.858 6.399h2.027l-11.171-7.251c-0.3 0.223-0.545 0.515-0.714 0.852z"></path>
<path fill="#ff4b55" style="fill: var(--color4, #ff4b55)" d="M20.785 13.241l10.627-6.898c-0.262-0.302-0.599-0.538-0.981-0.679l-11.673 7.577h2.027z"></path>
</symbol>
</defs>
</svg>
