<svg width="1440" height="432" viewBox="0 0 1440 432" fill="none" xmlns="http://www.w3.org/2000/svg">
<g clip-path="url(#clip0_115_134)">
<path fill-rule="evenodd" clip-rule="evenodd" d="M0 144L50 150C100 156 200 168 300 210C400 252 500 324 600 360C700 396 800 396 900 402C1000 408 1100 420 1150 426L1200 432H1150C1100 432 1000 432 900 432C800 432 700 432 600 432C500 432 400 432 300 432C200 432 100 432 50 432H0V144Z" fill="#9EBBFF"/>
<path opacity="0.8" fill-rule="evenodd" clip-rule="evenodd" d="M1440 0H1400C1360 0 1280 0 1200 22C1120 43 1040 86 960 86C880 86 800 43 720 79C640 115 560 230 480 288C400 346 320 346 240 331C160 317 80 288 40 274L0 259V432H40C80 432 160 432 240 432C320 432 400 432 480 432C560 432 640 432 720 432C800 432 880 432 960 432C1040 432 1120 432 1200 432C1280 432 1360 432 1400 432H1440V0Z" fill="#ECF2FF"/>
<g clip-path="url(#clip1_115_134)">
<path d="M1203 402C1283.1 402 1348.03 398.219 1348.03 393.554C1348.03 388.89 1283.1 385.109 1203 385.109C1122.9 385.109 1057.97 388.89 1057.97 393.554C1057.97 398.219 1122.9 402 1203 402Z" fill="#F5F5F5"/>
<path opacity="0.1" d="M1118.7 334.591C1118.79 333.919 1119.14 333.307 1119.66 332.88C1120.19 332.454 1120.87 332.247 1121.54 332.3C1127.95 332.203 1133.94 336.717 1139.49 341.559C1140.73 342.626 1142.07 343.731 1143.45 342.611C1143.88 342.258 1144.19 341.785 1144.35 341.253C1144.59 340.384 1144.59 339.467 1144.35 338.597C1144.14 337.88 1143.8 337.208 1143.34 336.62C1140.92 333.449 1137.98 331.927 1135.6 328.652C1134.26 326.776 1133.15 324.747 1132.3 322.609C1131.55 320.729 1130.06 317.692 1130.65 315.148C1131.32 312.104 1133.6 312.365 1134.98 312.783C1139.36 314.088 1143.44 317.2 1147.15 321.072C1151.11 325.19 1154.69 330.152 1158.26 335.083C1159.61 336.956 1161.03 338.881 1162.75 339.56C1164.47 340.239 1166.65 339.142 1167.37 336.441C1168.1 333.74 1167.25 330.637 1167.07 327.951C1166.83 324.746 1166.98 321.523 1167.53 318.356C1167.77 316.682 1168.34 315.07 1169.2 313.611C1171.13 310.791 1173.99 311.783 1175.86 313.917C1177.28 315.702 1178.39 317.722 1179.12 319.886C1181.21 325.864 1182.47 332.103 1182.86 338.426C1183.14 342.343 1183.74 346.424 1185.35 349.46C1187.97 354.37 1192.83 353.982 1196.61 351.408C1203.19 346.931 1208.26 336.814 1209.61 325.504C1210.05 321.818 1210.17 317.834 1211.51 314.745C1212.69 312.074 1215.7 310.268 1217.17 313.148C1217.77 314.588 1217.93 316.168 1217.65 317.699C1217.39 319.216 1217.02 320.712 1216.54 322.176C1215.79 324.713 1215.04 329.465 1217.06 330.95C1217.36 331.132 1217.7 331.247 1218.05 331.286C1218.4 331.324 1218.76 331.286 1219.09 331.174C1225.7 329.801 1231.85 323.594 1235.89 314.931C1237.35 311.672 1238.47 308.269 1239.23 304.777C1239.71 302.643 1239.91 300.353 1240.45 298.234C1240.8 296.566 1241.5 294.992 1242.5 293.616C1245.08 290.542 1251.01 291.989 1251.35 298.577C1251.55 302.39 1250.54 306.12 1250.16 309.851C1249.93 312.178 1251.37 312.164 1252.45 312.089C1257.61 311.567 1262.17 306.374 1266.22 300.972C1271.03 294.548 1276.36 286.207 1282.92 285.961C1284.42 285.909 1286.91 286.103 1287.81 288.408C1288.22 289.821 1288.22 291.323 1287.81 292.735C1286.48 298.241 1282.57 301.084 1279.58 303.807C1271.14 311.699 1263.73 320.606 1257.49 330.323C1256.54 331.815 1255.56 334.278 1256.47 335.74C1256.64 336.018 1256.89 336.238 1257.19 336.371C1257.49 336.504 1257.83 336.544 1258.15 336.486C1261.24 336.247 1264.13 333.8 1266.95 331.771C1269.77 329.741 1272.98 327.966 1275.93 329.495C1276.84 330.04 1277.63 330.76 1278.26 331.613C1278.9 332.466 1279.35 333.435 1279.6 334.464C1280.13 336.268 1280.22 338.172 1279.85 340.015C1278.76 345.081 1274.08 347.356 1271.49 349.856C1267.94 353.275 1264.69 356.992 1261.77 360.965C1259.08 364.643 1256.53 368.672 1253.84 372.283C1244.12 385.213 1230.65 387.13 1218.69 388.63C1205.66 390.257 1192.61 389.376 1179.66 387.668C1170.25 386.414 1160.96 383.743 1151.77 380.572C1148.61 379.431 1145.48 378.185 1142.38 376.708C1139.05 375.126 1134.15 374.149 1132.88 367.919C1132.61 366.576 1132.92 365.486 1133.81 364.987C1136.57 363.42 1140.5 365.516 1143.1 366.897C1146.68 368.807 1150.08 371.53 1153.76 373C1154.35 373.29 1155 373.457 1155.65 373.492C1156.31 373.526 1156.97 373.427 1157.59 373.201C1158.2 372.947 1158.7 372.491 1159 371.91C1159.39 371.154 1159.49 370.279 1159.27 369.456C1159.12 369.011 1158.86 368.609 1158.52 368.284C1151.9 361.513 1143.99 356.13 1135.25 352.452C1132.44 351.251 1129.58 350.266 1126.88 348.565C1124.69 347.219 1122.81 345.441 1121.34 343.343C1120.08 341.336 1118.06 337.792 1118.7 334.591Z" fill="#407BFF"/>
<path opacity="0.1" d="M1261.77 279.746C1261.27 280.262 1260.62 280.603 1259.9 280.715C1259.19 280.827 1258.47 280.706 1257.83 280.368C1257.19 280.031 1256.69 279.497 1256.38 278.846C1256.08 278.195 1256 277.464 1256.15 276.762C1258.73 264.265 1264.34 255.177 1271.01 259.892C1275.99 263.407 1268.18 273.098 1261.77 279.746Z" fill="#407BFF"/>
<path opacity="0.3" d="M1243.67 285.58C1245.71 284.457 1247.44 282.847 1248.7 280.894C1249.97 278.941 1250.73 276.706 1250.92 274.389L1255.97 212.949C1256.24 209.79 1255.83 206.612 1254.79 203.618C1253.75 200.625 1252.09 197.881 1249.92 195.565L1234.34 178.92C1233.48 177.999 1232.83 176.911 1232.41 175.724C1232 174.538 1231.84 173.278 1231.94 172.026L1232.69 163.028L1192.36 159.723L1191.62 168.721C1191.51 169.972 1191.15 171.189 1190.55 172.293C1189.95 173.396 1189.12 174.362 1188.12 175.129L1170.02 189.029C1167.5 190.963 1165.42 193.401 1163.9 196.185C1162.39 198.969 1161.47 202.038 1161.21 205.197L1156.15 266.637C1155.95 268.951 1156.34 271.277 1157.27 273.407C1158.2 275.536 1159.64 277.404 1161.46 278.843C1159.42 279.966 1157.69 281.576 1156.43 283.529C1155.17 285.482 1154.41 287.717 1154.22 290.034L1147.77 368.374C1147.46 372.098 1148.65 375.791 1151.08 378.64C1153.5 381.49 1156.96 383.264 1160.69 383.572L1227.27 389.026C1229.11 389.178 1230.97 388.965 1232.74 388.4C1234.51 387.835 1236.14 386.928 1237.56 385.731C1238.97 384.535 1240.14 383.072 1240.99 381.426C1241.84 379.781 1242.35 377.985 1242.5 376.141L1248.96 297.801C1249.15 295.487 1248.78 293.16 1247.85 291.028C1246.93 288.896 1245.49 287.024 1243.67 285.58Z" fill="#407BFF"/>
<path opacity="0.3" d="M1192.38 159.736L1191.8 166.674L1232.12 169.98L1232.69 163.043L1192.38 159.736Z" fill="#407BFF"/>
<path opacity="0.3" d="M1249.55 197.169L1233.97 180.509C1233.97 180.509 1223.92 180.941 1231.72 193.23C1238.37 203.623 1249.96 202.004 1249.55 197.169Z" fill="white"/>
<path opacity="0.2" d="M1147.78 368.344C1147.47 372.068 1148.66 375.761 1151.09 378.611C1153.51 381.46 1156.97 383.234 1160.7 383.542L1227.27 388.996C1229.12 389.148 1230.98 388.935 1232.75 388.37C1234.51 387.805 1236.15 386.898 1237.57 385.702C1238.98 384.505 1240.15 383.042 1240.99 381.397C1241.84 379.751 1242.36 377.955 1242.51 376.111L1147.78 368.344Z" fill="#407BFF"/>
<path opacity="0.3" d="M1246.64 198.609C1248.38 200.47 1249.71 202.673 1250.55 205.077C1251.38 207.48 1251.71 210.032 1251.5 212.568L1246.44 274.016C1246.31 275.596 1245.79 277.118 1244.93 278.448C1244.06 279.779 1242.88 280.875 1241.49 281.641L1235.61 284.894L1240.88 289.065C1242.13 290.046 1243.11 291.319 1243.75 292.772C1244.38 294.225 1244.64 295.812 1244.51 297.391L1238.06 375.73C1237.85 378.269 1236.64 380.622 1234.7 382.272C1232.75 383.923 1230.23 384.736 1227.68 384.534L1161.11 379.08C1159.85 378.98 1158.62 378.633 1157.49 378.058C1156.36 377.483 1155.35 376.692 1154.53 375.73C1153.71 374.767 1153.08 373.653 1152.69 372.45C1152.3 371.246 1152.15 369.978 1152.25 368.717L1158.7 290.378C1158.83 288.797 1159.35 287.273 1160.21 285.942C1161.08 284.61 1162.26 283.512 1163.65 282.745L1169.53 279.492L1164.3 275.322C1163.05 274.341 1162.07 273.067 1161.43 271.614C1160.8 270.161 1160.53 268.575 1160.66 266.995L1165.73 205.555C1165.94 203.019 1166.68 200.554 1167.9 198.318C1169.12 196.083 1170.79 194.126 1172.81 192.573C1178.79 188.716 1194.5 198.318 1212.9 199.825C1231.29 201.332 1242.79 196.676 1246.64 198.609Z" fill="#407BFF"/>
<path opacity="0.2" d="M1212.86 199.832C1194.47 198.34 1178.75 188.716 1172.77 192.573C1183.24 198.318 1195.21 201.877 1212.57 203.302C1229.93 204.727 1246.64 198.609 1246.64 198.609C1242.79 196.676 1231.24 201.347 1212.86 199.832Z" fill="#407BFF"/>
<path opacity="0.2" d="M1156.15 266.637C1155.96 268.951 1156.35 271.277 1157.27 273.407C1158.2 275.536 1159.64 277.404 1161.47 278.843L1243.67 285.558C1245.71 284.435 1247.44 282.824 1248.7 280.872C1249.97 278.919 1250.73 276.684 1250.92 274.367L1156.15 266.637Z" fill="#407BFF"/>
<path d="M1233.53 152.039L1193.33 148.732C1191.65 148.593 1190.17 149.843 1190.03 151.522L1189.23 161.278C1189.09 162.958 1190.35 164.432 1192.03 164.571L1232.23 167.878C1233.92 168.016 1235.39 166.767 1235.53 165.087L1236.33 155.331C1236.47 153.651 1235.22 152.178 1233.53 152.039Z" fill="#407BFF"/>
<path opacity="0.2" d="M1194.07 163.065C1194.02 163.061 1193.97 163.048 1193.93 163.026C1193.88 163.003 1193.84 162.973 1193.81 162.935C1193.78 162.898 1193.76 162.854 1193.74 162.807C1193.73 162.761 1193.72 162.711 1193.72 162.662L1194.67 150.859C1194.68 150.76 1194.72 150.669 1194.8 150.604C1194.87 150.54 1194.97 150.508 1195.07 150.516C1195.17 150.524 1195.26 150.571 1195.33 150.646C1195.39 150.722 1195.42 150.82 1195.42 150.919L1194.44 162.715C1194.44 162.81 1194.4 162.899 1194.33 162.964C1194.26 163.029 1194.16 163.065 1194.07 163.065Z" fill="white"/>
<path opacity="0.2" d="M1201.36 163.662C1201.31 163.658 1201.26 163.645 1201.22 163.623C1201.18 163.6 1201.14 163.569 1201.11 163.532C1201.07 163.495 1201.05 163.451 1201.03 163.404C1201.02 163.358 1201.01 163.308 1201.02 163.259L1201.99 151.464C1202 151.365 1202.05 151.274 1202.12 151.21C1202.2 151.146 1202.3 151.114 1202.39 151.12C1202.44 151.124 1202.49 151.138 1202.53 151.16C1202.58 151.182 1202.62 151.213 1202.65 151.251C1202.68 151.288 1202.7 151.332 1202.72 151.379C1202.73 151.425 1202.74 151.475 1202.73 151.523L1201.74 163.319C1201.73 163.412 1201.68 163.498 1201.61 163.562C1201.55 163.625 1201.46 163.661 1201.36 163.662Z" fill="white"/>
<path opacity="0.2" d="M1208.65 164.289C1208.6 164.285 1208.55 164.272 1208.51 164.249C1208.46 164.227 1208.42 164.196 1208.39 164.159C1208.36 164.121 1208.34 164.078 1208.32 164.031C1208.31 163.984 1208.3 163.935 1208.3 163.886L1209.28 152.09C1209.29 151.993 1209.34 151.903 1209.41 151.839C1209.49 151.776 1209.58 151.743 1209.68 151.747C1209.73 151.751 1209.78 151.764 1209.82 151.787C1209.86 151.809 1209.9 151.84 1209.94 151.877C1209.97 151.915 1209.99 151.958 1210.01 152.005C1210.02 152.052 1210.03 152.101 1210.02 152.15L1209.05 163.946C1209.05 163.995 1209.03 164.042 1209.01 164.086C1208.99 164.13 1208.96 164.169 1208.92 164.201C1208.88 164.233 1208.84 164.257 1208.79 164.272C1208.75 164.287 1208.7 164.293 1208.65 164.289Z" fill="white"/>
<path opacity="0.2" d="M1215.94 164.856C1215.89 164.852 1215.84 164.839 1215.8 164.816C1215.76 164.794 1215.72 164.763 1215.68 164.726C1215.65 164.688 1215.63 164.645 1215.61 164.598C1215.6 164.551 1215.59 164.502 1215.6 164.453L1216.57 152.657C1216.58 152.559 1216.63 152.468 1216.7 152.404C1216.78 152.34 1216.87 152.308 1216.97 152.314C1217.02 152.318 1217.07 152.331 1217.11 152.354C1217.16 152.376 1217.2 152.407 1217.23 152.445C1217.26 152.482 1217.28 152.526 1217.3 152.572C1217.31 152.619 1217.31 152.668 1217.31 152.717L1216.34 164.513C1216.33 164.561 1216.32 164.609 1216.3 164.653C1216.28 164.697 1216.25 164.736 1216.21 164.768C1216.17 164.8 1216.13 164.824 1216.08 164.839C1216.04 164.854 1215.99 164.86 1215.94 164.856Z" fill="white"/>
<path opacity="0.2" d="M1223.2 165.453C1223.15 165.449 1223.1 165.435 1223.06 165.413C1223.01 165.391 1222.97 165.36 1222.94 165.323C1222.91 165.285 1222.88 165.242 1222.87 165.195C1222.85 165.148 1222.85 165.099 1222.85 165.05L1223.82 153.254C1223.84 153.157 1223.89 153.069 1223.96 153.005C1224.04 152.942 1224.13 152.908 1224.23 152.911C1224.28 152.915 1224.33 152.928 1224.37 152.95C1224.41 152.973 1224.45 153.004 1224.48 153.041C1224.52 153.078 1224.54 153.122 1224.56 153.169C1224.57 153.215 1224.58 153.265 1224.57 153.314L1223.6 165.109C1223.6 165.159 1223.58 165.207 1223.56 165.252C1223.54 165.296 1223.51 165.335 1223.47 165.367C1223.43 165.399 1223.39 165.424 1223.34 165.438C1223.3 165.453 1223.25 165.458 1223.2 165.453Z" fill="white"/>
<path opacity="0.2" d="M1230.52 166.05C1230.47 166.046 1230.42 166.032 1230.38 166.01C1230.33 165.988 1230.3 165.957 1230.26 165.92C1230.23 165.882 1230.21 165.839 1230.19 165.792C1230.18 165.745 1230.17 165.696 1230.18 165.647L1231.12 153.844C1231.13 153.745 1231.17 153.654 1231.25 153.59C1231.33 153.526 1231.42 153.494 1231.52 153.5C1231.62 153.51 1231.71 153.557 1231.77 153.633C1231.84 153.708 1231.87 153.805 1231.86 153.903L1230.89 165.706C1230.88 165.799 1230.84 165.886 1230.77 165.949C1230.7 166.012 1230.61 166.048 1230.52 166.05Z" fill="white"/>
<path opacity="0.2" d="M1168.59 246.112C1167.46 239.838 1158.29 240.285 1157.77 246.635L1156.12 266.637C1155.93 268.951 1156.32 271.277 1157.24 273.407C1158.17 275.536 1159.61 277.404 1161.44 278.843C1159.4 279.966 1157.67 281.576 1156.41 283.529C1155.14 285.482 1154.39 287.717 1154.2 290.034L1147.75 368.374C1147.44 372.098 1148.63 375.791 1151.06 378.64C1153.48 381.49 1156.94 383.264 1160.67 383.572L1177.87 384.982C1179.77 385.136 1181.68 384.855 1183.44 384.158C1185.21 383.461 1186.8 382.369 1188.08 380.964C1189.35 379.559 1190.29 377.881 1190.82 376.057C1191.34 374.234 1191.44 372.315 1191.1 370.448L1168.59 246.112Z" fill="#407BFF"/>
<path opacity="0.3" d="M1234.79 348.692C1234.67 350.13 1234.13 351.501 1233.23 352.631C1232.33 353.761 1231.11 354.599 1229.74 355.041C1228.36 355.482 1226.88 355.506 1225.49 355.109C1224.1 354.713 1222.86 353.914 1221.92 352.814C1220.99 351.713 1220.4 350.361 1220.23 348.927C1220.07 347.494 1220.33 346.043 1220.99 344.76C1221.65 343.476 1222.68 342.417 1223.94 341.716C1225.21 341.015 1226.65 340.703 1228.1 340.821C1230.03 340.98 1231.82 341.899 1233.08 343.375C1234.33 344.851 1234.95 346.763 1234.79 348.692Z" fill="#407BFF"/>
<path opacity="0.3" d="M1211.53 320.438C1211.45 321.456 1211.07 322.426 1210.43 323.226C1209.79 324.026 1208.93 324.62 1207.96 324.933C1206.99 325.245 1205.94 325.262 1204.96 324.982C1203.97 324.702 1203.09 324.136 1202.43 323.358C1201.77 322.579 1201.35 321.622 1201.23 320.607C1201.12 319.593 1201.3 318.566 1201.77 317.658C1202.24 316.75 1202.97 316 1203.86 315.504C1204.76 315.008 1205.78 314.788 1206.8 314.872C1208.17 314.986 1209.43 315.636 1210.32 316.679C1211.21 317.722 1211.64 319.074 1211.53 320.438Z" fill="#407BFF"/>
<path opacity="0.3" d="M1189.9 257.55C1188.87 257.597 1187.86 257.342 1186.98 256.815C1186.11 256.288 1185.41 255.514 1184.97 254.591C1184.54 253.667 1184.38 252.635 1184.54 251.626C1184.69 250.617 1185.14 249.675 1185.82 248.92C1186.51 248.165 1187.41 247.63 1188.4 247.383C1189.4 247.136 1190.44 247.188 1191.4 247.533C1192.37 247.878 1193.2 248.499 1193.81 249.319C1194.42 250.139 1194.77 251.121 1194.82 252.141C1194.86 252.819 1194.76 253.497 1194.53 254.136C1194.3 254.775 1193.94 255.363 1193.48 255.865C1193.03 256.368 1192.47 256.775 1191.86 257.064C1191.24 257.353 1190.58 257.518 1189.9 257.55Z" fill="#407BFF"/>
<path opacity="0.3" d="M1204.01 226.684C1203.29 226.72 1202.57 226.541 1201.94 226.169C1201.32 225.798 1200.82 225.25 1200.51 224.596C1200.2 223.942 1200.09 223.21 1200.2 222.494C1200.31 221.779 1200.63 221.111 1201.11 220.575C1201.6 220.039 1202.24 219.66 1202.94 219.485C1203.65 219.31 1204.39 219.348 1205.07 219.593C1205.75 219.838 1206.35 220.28 1206.78 220.862C1207.21 221.445 1207.45 222.141 1207.49 222.864C1207.53 223.83 1207.19 224.775 1206.54 225.491C1205.89 226.207 1204.98 226.636 1204.01 226.684Z" fill="#407BFF"/>
<path opacity="0.3" d="M1226.72 298.122C1226.68 298.542 1226.52 298.942 1226.26 299.272C1226 299.602 1225.64 299.847 1225.24 299.976C1224.84 300.104 1224.41 300.111 1224 299.995C1223.59 299.879 1223.23 299.645 1222.96 299.323C1222.68 299.002 1222.51 298.606 1222.46 298.187C1222.41 297.769 1222.49 297.345 1222.68 296.97C1222.88 296.594 1223.18 296.285 1223.55 296.079C1223.92 295.874 1224.34 295.783 1224.76 295.817C1225.33 295.864 1225.85 296.134 1226.22 296.566C1226.58 296.998 1226.76 297.557 1226.72 298.122Z" fill="#407BFF"/>
<path opacity="0.7" d="M1187.97 356.496H1187.61C1187.04 356.457 1186.48 356.305 1185.97 356.049C1185.45 355.793 1185 355.437 1184.62 355.004C1184.25 354.572 1183.97 354.071 1183.8 353.531C1183.63 352.99 1183.56 352.421 1183.61 351.855C1183.68 351.019 1183.99 350.222 1184.51 349.56C1185.03 348.898 1185.73 348.401 1186.52 348.128C1187.32 347.856 1188.17 347.82 1188.99 348.025C1189.8 348.231 1190.54 348.669 1191.11 349.286C1191.68 349.902 1192.06 350.671 1192.2 351.498C1192.34 352.326 1192.23 353.175 1191.9 353.944C1191.56 354.713 1191.01 355.367 1190.3 355.827C1189.6 356.286 1188.78 356.532 1187.94 356.533L1187.97 356.496ZM1187.97 348.408C1187.12 348.413 1186.3 348.706 1185.64 349.24C1184.98 349.774 1184.52 350.517 1184.34 351.346C1184.16 352.176 1184.26 353.041 1184.64 353.801C1185.02 354.561 1185.65 355.169 1186.42 355.525C1187.19 355.881 1188.06 355.964 1188.89 355.76C1189.72 355.556 1190.45 355.077 1190.96 354.403C1191.48 353.728 1191.75 352.898 1191.73 352.05C1191.71 351.202 1191.4 350.386 1190.85 349.737C1190.53 349.359 1190.14 349.049 1189.7 348.823C1189.26 348.598 1188.78 348.462 1188.29 348.423L1187.97 348.408Z" fill="white"/>
<path opacity="0.7" d="M1234.24 269.189H1233.97C1233.14 269.12 1232.37 268.726 1231.83 268.093C1231.29 267.459 1231.03 266.638 1231.09 265.809C1231.16 264.979 1231.56 264.21 1232.2 263.672C1232.83 263.133 1233.66 262.869 1234.49 262.937C1235.32 263.005 1236.09 263.399 1236.63 264.033C1237.17 264.666 1237.44 265.488 1237.37 266.316C1237.3 267.146 1236.9 267.915 1236.27 268.458C1235.7 268.934 1234.98 269.194 1234.24 269.189ZM1231.66 265.839C1231.62 266.346 1231.73 266.853 1231.98 267.296C1232.23 267.739 1232.61 268.098 1233.07 268.329C1233.52 268.559 1234.03 268.65 1234.54 268.591C1235.05 268.532 1235.52 268.324 1235.91 267.995C1236.17 267.776 1236.39 267.508 1236.54 267.206C1236.7 266.904 1236.79 266.575 1236.82 266.236C1236.85 265.898 1236.81 265.558 1236.7 265.235C1236.6 264.912 1236.43 264.613 1236.21 264.354C1235.98 264.103 1235.71 263.899 1235.4 263.756C1235.09 263.613 1234.76 263.532 1234.42 263.519C1234.08 263.49 1233.74 263.528 1233.41 263.631C1233.09 263.735 1232.79 263.9 1232.53 264.119C1232.27 264.338 1232.06 264.606 1231.9 264.908C1231.75 265.209 1231.65 265.538 1231.63 265.876L1231.66 265.839Z" fill="white"/>
<path opacity="0.7" d="M1185.91 203.04H1185.8C1185.41 203.002 1185.05 202.816 1184.8 202.521C1184.55 202.226 1184.42 201.845 1184.45 201.459C1184.47 201.169 1184.57 200.89 1184.75 200.658C1184.92 200.426 1185.16 200.25 1185.44 200.151C1185.71 200.053 1186.01 200.037 1186.29 200.105C1186.58 200.173 1186.83 200.322 1187.03 200.534C1187.23 200.746 1187.37 201.012 1187.42 201.299C1187.47 201.585 1187.43 201.88 1187.32 202.147C1187.2 202.414 1187.01 202.641 1186.77 202.802C1186.52 202.962 1186.24 203.047 1185.95 203.048L1185.91 203.04ZM1185 201.504C1184.99 201.681 1185.03 201.859 1185.12 202.015C1185.2 202.17 1185.33 202.297 1185.49 202.378C1185.65 202.459 1185.83 202.492 1186.01 202.472C1186.19 202.451 1186.35 202.379 1186.49 202.264C1186.63 202.148 1186.73 201.995 1186.78 201.824C1186.82 201.653 1186.82 201.471 1186.77 201.301C1186.71 201.131 1186.61 200.981 1186.47 200.87C1186.33 200.758 1186.16 200.691 1185.98 200.675C1185.86 200.664 1185.74 200.677 1185.63 200.713C1185.52 200.748 1185.41 200.807 1185.32 200.884C1185.23 200.961 1185.15 201.055 1185.1 201.162C1185.04 201.268 1185.01 201.384 1185 201.504Z" fill="white"/>
<path opacity="0.7" d="M1218.98 241.681H1218.67C1218.18 241.642 1217.7 241.507 1217.26 241.282C1216.82 241.057 1216.43 240.748 1216.11 240.372C1215.79 239.996 1215.55 239.561 1215.4 239.092C1215.25 238.622 1215.19 238.128 1215.24 237.637C1215.3 236.916 1215.57 236.23 1216.02 235.661C1216.47 235.092 1217.07 234.666 1217.76 234.433C1218.45 234.2 1219.19 234.172 1219.89 234.351C1220.59 234.529 1221.23 234.908 1221.72 235.441C1222.21 235.973 1222.53 236.636 1222.65 237.35C1222.77 238.063 1222.68 238.795 1222.39 239.458C1222.1 240.121 1221.62 240.685 1221.02 241.082C1220.41 241.48 1219.7 241.693 1218.98 241.695L1218.98 241.681ZM1218.98 234.742C1218.23 234.739 1217.5 235.003 1216.93 235.488C1216.28 236.033 1215.88 236.811 1215.81 237.652C1215.76 238.173 1215.85 238.697 1216.06 239.177C1216.27 239.657 1216.59 240.078 1217 240.404C1217.42 240.729 1217.9 240.948 1218.42 241.042C1218.93 241.136 1219.46 241.101 1219.96 240.942C1220.46 240.782 1220.92 240.502 1221.28 240.126C1221.65 239.751 1221.91 239.291 1222.06 238.788C1222.2 238.285 1222.22 237.754 1222.11 237.242C1222 236.731 1221.77 236.254 1221.43 235.854C1221.16 235.533 1220.83 235.27 1220.45 235.08C1220.08 234.889 1219.67 234.774 1219.25 234.742H1218.98Z" fill="white"/>
<path opacity="0.3" d="M1249.67 274.3L1254.5 215.709C1254.53 215.335 1254.49 214.958 1254.37 214.601C1254.26 214.243 1254.07 213.912 1253.83 213.626C1253.58 213.339 1253.29 213.104 1252.95 212.933C1252.62 212.762 1252.25 212.658 1251.87 212.628C1251.5 212.596 1251.12 212.639 1250.76 212.753C1250.41 212.867 1250.07 213.051 1249.79 213.293C1249.5 213.536 1249.26 213.833 1249.09 214.167C1248.92 214.501 1248.82 214.865 1248.79 215.239L1243.95 273.829C1243.8 275.777 1243.16 277.655 1242.09 279.296C1241.03 280.937 1239.57 282.289 1237.86 283.23L1234.92 284.864L1237.56 286.946C1239.1 288.155 1240.31 289.725 1241.09 291.516C1241.88 293.308 1242.2 295.264 1242.05 297.212L1235.59 375.551C1235.2 380.252 1232.24 382.542 1228.07 384.37C1227.81 384.488 1227.59 384.69 1227.45 384.945C1227.32 385.2 1227.27 385.492 1227.32 385.777C1227.37 386.062 1227.51 386.323 1227.72 386.52C1227.93 386.716 1228.2 386.836 1228.49 386.862C1231.63 387.118 1234.75 386.12 1237.15 384.087C1239.55 382.054 1241.05 379.153 1241.31 376.021L1247.76 297.682C1247.92 295.734 1247.59 293.777 1246.81 291.986C1246.03 290.194 1244.81 288.624 1243.27 287.416L1240.63 285.327L1243.57 283.7C1245.29 282.757 1246.74 281.405 1247.8 279.765C1248.87 278.124 1249.51 276.247 1249.67 274.3Z" fill="white"/>
<path opacity="0.3" d="M1327.31 365.352C1326.5 361.696 1316.42 363.86 1314.33 364.196C1310.28 364.93 1306.31 366.072 1302.48 367.605C1298.27 369.254 1293.38 371.679 1289.02 369.172C1286.5 367.725 1295.25 364.867 1296.04 364.576C1299.76 363.273 1303.35 361.63 1306.77 359.667C1308.15 358.846 1310.83 356.884 1309.68 354.892C1308.72 353.243 1305.29 353.4 1303.2 353.653C1296.88 354.426 1290.68 355.977 1284.73 358.272C1278.96 360.561 1273.3 363.144 1267.78 366.009C1265.65 367.211 1263.32 368.046 1260.91 368.478C1258.28 368.851 1255.05 368.292 1254.01 366.837C1252.97 365.382 1254.31 363.681 1254.62 362.219C1255.05 360.47 1254.87 358.626 1254.1 356.996C1253.59 355.903 1252.74 355.007 1251.67 354.444C1248.82 352.952 1244.51 353.504 1241.65 354.683C1239.79 355.467 1238.1 356.585 1236.65 357.981C1233.72 360.695 1231.67 364.213 1230.75 368.09C1230.52 369.305 1230.05 370.461 1229.37 371.495C1228.69 372.528 1227.81 373.417 1226.79 374.111C1222.78 376.805 1215.43 376.648 1209.81 375.298C1200.01 372.977 1192.53 367.553 1190.73 361.428C1189.85 358.511 1189.42 355.459 1185.49 354.318C1182.95 353.571 1177.62 354.094 1178.76 357.302C1179.17 358.181 1179.71 358.995 1180.36 359.719C1181.4 361.085 1182.5 363.659 1179.42 364.487C1178.42 364.698 1177.39 364.749 1176.37 364.636C1166.44 363.972 1157.3 360.667 1151.37 356.011C1149.44 354.497 1147.8 352.644 1146.54 350.542C1145.84 349.386 1145.58 348.14 1144.81 346.998C1144.08 345.9 1143.04 345.037 1141.82 344.514C1138.01 342.88 1129.05 343.731 1128.42 347.312C1128.08 349.252 1129.29 351.356 1129.91 353.198C1130.02 353.431 1130.05 353.695 1129.99 353.944C1129.81 354.414 1129.1 354.549 1128.49 354.586C1120.48 355.116 1112.71 352.012 1105.98 348.774C1098.86 345.342 1091.02 340.873 1081.13 340.821C1079.08 340.728 1077.03 340.962 1075.06 341.515C1074.56 341.648 1074.1 341.887 1073.7 342.216C1073.46 342.467 1073.3 342.785 1073.24 343.128C1073.18 343.471 1073.23 343.824 1073.37 344.141C1073.69 344.798 1074.17 345.367 1074.76 345.797C1077.75 348.229 1081.94 349.214 1085.77 350.468C1097.11 354.134 1108.07 358.868 1118.51 364.606C1119.57 365.195 1121.44 366.561 1119.96 367.59C1118.48 368.62 1115.47 367.956 1113.7 367.665C1110.48 367.143 1107.39 366.307 1104.26 365.524C1100.11 364.479 1095.28 363.532 1090.79 364.397C1088.42 364.852 1086.3 365.822 1085.19 367.135C1084.81 367.519 1084.55 368.015 1084.47 368.55C1084.38 369.086 1084.47 369.635 1084.71 370.12C1086.25 372.858 1093.28 374.037 1097.11 375.342C1102.03 377.015 1106.83 378.991 1111.5 381.259C1115.48 383.228 1119.19 385.385 1123.23 387.317C1137.65 394.218 1157.81 395.106 1175.83 395.778C1195.39 396.524 1215.04 395.89 1234.54 394.808C1248.76 394.017 1262.71 392.458 1276.63 390.622C1280.63 390.1 1284.61 389.458 1288.6 388.914C1292.65 388.451 1296.65 387.66 1300.57 386.549C1301.98 386.19 1303.29 385.534 1304.42 384.624C1305.49 383.631 1305.83 382.333 1303.91 381.96C1299.9 381.162 1295.77 382.072 1291.85 382.781C1287.46 383.587 1283.1 384.514 1278.78 385.564C1276.81 386.087 1274.81 386.494 1272.8 386.78C1270.77 387.064 1268.7 386.932 1266.73 386.392C1266.09 386.19 1265.38 385.832 1265.35 385.265C1265.31 384.698 1265.85 384.34 1266.4 384.124C1274.47 380.93 1283.04 378.901 1291.68 377.036C1297.53 375.768 1303.49 374.992 1309.4 373.999C1314.77 373.097 1320.44 372.888 1325.1 369.485C1326.03 368.888 1326.75 368.021 1327.17 367.001C1327.37 366.476 1327.42 365.904 1327.31 365.352Z" fill="#407BFF"/>
<path opacity="0.3" d="M1095.85 335.143C1093.66 328.928 1085.85 317.923 1084.2 324.422C1083.32 328.07 1095.85 335.143 1095.85 335.143Z" fill="#407BFF"/>
<path opacity="0.3" d="M1291.96 347.378C1296.13 343.581 1301.34 341.321 1302.01 344.663C1302.64 347.826 1291.96 347.378 1291.96 347.378Z" fill="#407BFF"/>
<path opacity="0.3" d="M1120.72 317.177C1117.86 315.685 1115.63 313.29 1117.31 312.29C1118.98 311.291 1120.72 317.177 1120.72 317.177Z" fill="#407BFF"/>
</g>
</g>
<defs>
<clipPath id="clip0_115_134">
<rect width="1440" height="432" fill="white"/>
</clipPath>
<clipPath id="clip1_115_134">
<rect width="374" height="278" fill="white" transform="translate(1016 124)"/>
</clipPath>
</defs>
</svg>
