<svg width="22" height="20" viewBox="0 0 22 20" fill="none" xmlns="http://www.w3.org/2000/svg"><path d="M1.730 0.588 C 1.540 0.704,1.448 0.996,1.544 1.185 C 1.601 1.299,19.651 19.353,19.771 19.417 C 19.911 19.492,20.128 19.482,20.270 19.396 C 20.460 19.280,20.552 18.987,20.456 18.798 C 20.434 18.754,19.770 18.070,18.980 17.277 L 17.545 15.836 17.637 15.762 C 18.462 15.091,19.084 14.487,19.557 13.897 C 20.376 12.874,21.132 11.464,21.484 10.305 C 21.585 9.971,21.576 9.900,21.355 9.283 C 20.997 8.282,20.320 7.068,19.614 6.160 C 18.481 4.701,16.687 3.384,14.942 2.730 C 13.681 2.258,12.658 2.061,11.298 2.027 C 9.617 1.987,8.249 2.238,6.733 2.867 C 6.339 3.031,5.479 3.468,5.360 3.567 C 5.323 3.598,4.974 3.270,3.802 2.100 C 2.971 1.272,2.256 0.576,2.212 0.554 C 2.087 0.491,1.864 0.506,1.730 0.588 M12.008 3.044 C 13.507 3.211,14.916 3.681,16.139 4.421 C 18.176 5.654,19.697 7.533,20.461 9.760 L 20.545 10.005 20.423 10.347 C 19.787 12.131,18.602 13.760,17.109 14.903 L 16.826 15.120 15.324 13.619 C 14.499 12.794,13.823 12.107,13.823 12.092 C 13.823 12.077,13.882 11.973,13.954 11.860 C 14.117 11.606,14.272 11.246,14.381 10.867 C 14.453 10.619,14.465 10.495,14.464 9.992 C 14.464 9.367,14.432 9.187,14.237 8.690 C 13.842 7.681,12.937 6.890,11.862 6.614 C 11.563 6.537,11.407 6.519,11.018 6.517 C 10.309 6.515,9.780 6.657,9.199 7.006 L 8.894 7.189 7.472 5.767 C 6.690 4.985,6.050 4.333,6.050 4.318 C 6.050 4.303,6.203 4.214,6.389 4.120 C 7.518 3.553,8.632 3.211,9.845 3.061 C 10.301 3.005,11.567 2.995,12.008 3.044 M2.760 5.784 C 2.587 5.878,2.135 6.449,1.707 7.113 C 1.098 8.057,0.404 9.695,0.454 10.072 C 0.490 10.344,0.802 11.147,1.135 11.825 C 1.656 12.886,2.301 13.806,3.097 14.626 C 4.912 16.493,7.219 17.623,9.804 17.912 C 10.731 18.016,12.049 17.970,12.963 17.801 C 13.423 17.717,13.999 17.569,14.126 17.504 C 14.253 17.438,14.389 17.162,14.355 17.040 C 14.297 16.834,14.246 16.752,14.136 16.684 C 13.976 16.585,13.851 16.590,13.290 16.718 C 12.517 16.894,12.096 16.945,11.251 16.966 C 10.185 16.993,9.540 16.925,8.543 16.680 C 7.729 16.480,6.661 16.042,5.950 15.617 C 3.852 14.363,2.338 12.513,1.537 10.225 L 1.452 9.981 1.609 9.550 C 1.984 8.523,2.495 7.626,3.264 6.646 C 3.479 6.371,3.518 6.219,3.423 6.025 C 3.291 5.755,3.004 5.651,2.760 5.784 M11.586 7.559 C 11.677 7.580,11.908 7.672,12.100 7.763 C 12.398 7.905,12.494 7.975,12.765 8.249 C 13.020 8.505,13.112 8.630,13.234 8.881 C 13.483 9.397,13.557 9.979,13.441 10.523 C 13.391 10.760,13.248 11.122,13.139 11.289 C 13.082 11.376,13.079 11.373,11.363 9.658 C 10.417 8.712,9.643 7.926,9.643 7.912 C 9.643 7.875,10.020 7.687,10.247 7.610 C 10.629 7.481,11.168 7.460,11.586 7.559 " stroke="none" fill-rule="evenodd" fill="black"></path></svg>