<svg width="22" height="20" viewBox="0 0 22 20" fill="none" xmlns="http://www.w3.org/2000/svg">
<path d="M2.98008 6.223C2.04454 7.32718 1.3479 8.6132 0.934082 10C2.22608 14.338 6.24408 17.5 11.0001 17.5C11.9931 17.5 12.9531 17.362 13.8631 17.105M5.22808 4.228C6.9407 3.09781 8.94816 2.49682 11.0001 2.5C15.7561 2.5 19.7731 5.662 21.0651 9.998C20.357 12.3673 18.8371 14.4115 16.7721 15.772M5.22808 4.228L2.00008 1M5.22808 4.228L8.87808 7.878M16.7721 15.772L20.0001 19M16.7721 15.772L13.1221 12.122C13.4007 11.8434 13.6217 11.5127 13.7725 11.1486C13.9232 10.7846 14.0008 10.3945 14.0008 10.0005C14.0008 9.6065 13.9232 9.21636 13.7725 8.85235C13.6217 8.48834 13.4007 8.1576 13.1221 7.879C12.8435 7.6004 12.5127 7.3794 12.1487 7.22863C11.7847 7.07785 11.3946 7.00025 11.0006 7.00025C10.6066 7.00025 10.2164 7.07785 9.85243 7.22863C9.48843 7.3794 9.15768 7.6004 8.87908 7.879M13.1211 12.121L8.88008 7.88" stroke="#2F2F2F" stroke-linecap="round" stroke-linejoin="round"/>
</svg>
