<svg width="24" height="24" viewBox="0 0 24 24" fill="none" xmlns="http://www.w3.org/2000/svg"><path d="M10.210 2.578 C 9.830 2.698,9.448 3.026,9.267 3.389 C 9.153 3.615,9.114 3.778,8.979 4.596 C 8.922 4.935,8.857 5.250,8.833 5.296 C 8.705 5.547,8.229 5.862,7.916 5.903 C 7.765 5.923,7.643 5.889,7.060 5.670 C 6.279 5.375,6.082 5.320,5.806 5.320 C 5.392 5.320,4.842 5.574,4.603 5.876 C 4.459 6.058,3.234 8.164,3.067 8.517 C 2.829 9.020,2.892 9.686,3.219 10.129 C 3.296 10.232,3.615 10.531,3.929 10.793 C 4.600 11.353,4.669 11.423,4.721 11.603 C 4.771 11.779,4.771 12.221,4.721 12.397 C 4.669 12.577,4.600 12.647,3.929 13.207 C 3.615 13.469,3.296 13.768,3.219 13.871 C 2.906 14.296,2.831 14.972,3.047 15.443 C 3.194 15.764,4.385 17.824,4.562 18.064 C 4.911 18.536,5.606 18.779,6.192 18.634 C 6.296 18.608,6.686 18.472,7.060 18.330 C 7.643 18.111,7.765 18.077,7.916 18.097 C 8.229 18.138,8.705 18.453,8.833 18.704 C 8.857 18.750,8.922 19.065,8.979 19.404 C 9.035 19.743,9.101 20.110,9.125 20.220 C 9.231 20.698,9.573 21.122,10.032 21.348 L 10.260 21.460 12.000 21.460 L 13.740 21.460 13.968 21.348 C 14.427 21.122,14.769 20.698,14.875 20.220 C 14.899 20.110,14.965 19.743,15.021 19.404 C 15.078 19.065,15.143 18.750,15.167 18.704 C 15.295 18.453,15.771 18.138,16.084 18.097 C 16.235 18.077,16.357 18.111,16.940 18.330 C 17.314 18.472,17.704 18.608,17.808 18.634 C 18.394 18.779,19.089 18.536,19.438 18.064 C 19.615 17.824,20.806 15.764,20.953 15.443 C 21.175 14.959,21.092 14.265,20.764 13.849 C 20.678 13.741,20.358 13.445,20.054 13.191 C 19.400 12.647,19.331 12.576,19.279 12.397 C 19.229 12.221,19.229 11.779,19.279 11.603 C 19.331 11.423,19.400 11.353,20.071 10.793 C 20.385 10.531,20.704 10.232,20.781 10.129 C 21.094 9.704,21.169 9.028,20.953 8.557 C 20.806 8.236,19.615 6.176,19.438 5.936 C 19.089 5.464,18.394 5.221,17.808 5.366 C 17.704 5.392,17.314 5.528,16.940 5.670 C 16.357 5.889,16.235 5.923,16.084 5.903 C 15.771 5.862,15.295 5.547,15.167 5.296 C 15.143 5.250,15.078 4.935,15.021 4.596 C 14.965 4.257,14.899 3.890,14.875 3.780 C 14.769 3.302,14.427 2.878,13.968 2.652 L 13.740 2.540 12.060 2.532 C 10.744 2.525,10.343 2.535,10.210 2.578 M13.596 3.580 C 13.845 3.727,13.877 3.809,14.026 4.684 C 14.190 5.651,14.283 5.895,14.614 6.213 C 14.890 6.479,15.426 6.780,15.777 6.866 C 16.167 6.963,16.461 6.910,17.333 6.585 C 18.093 6.302,18.264 6.274,18.465 6.397 C 18.645 6.506,18.715 6.613,19.434 7.863 C 20.019 8.880,20.080 9.004,20.080 9.175 C 20.080 9.279,20.053 9.415,20.021 9.478 C 19.988 9.541,19.678 9.826,19.331 10.111 C 18.382 10.892,18.265 11.099,18.265 12.000 C 18.265 12.901,18.382 13.108,19.331 13.889 C 19.678 14.174,19.988 14.459,20.021 14.522 C 20.053 14.585,20.080 14.721,20.080 14.824 C 20.080 14.994,20.018 15.120,19.434 16.136 C 18.712 17.391,18.644 17.495,18.465 17.603 C 18.264 17.726,18.093 17.698,17.333 17.415 C 16.461 17.090,16.167 17.037,15.777 17.134 C 15.426 17.220,14.890 17.521,14.614 17.787 C 14.283 18.105,14.190 18.349,14.026 19.316 C 13.877 20.191,13.845 20.273,13.596 20.420 C 13.467 20.496,13.388 20.500,12.000 20.500 C 10.059 20.500,10.188 20.576,9.974 19.316 C 9.810 18.349,9.717 18.105,9.386 17.787 C 9.110 17.521,8.574 17.220,8.223 17.134 C 7.833 17.037,7.539 17.090,6.667 17.415 C 5.907 17.698,5.736 17.726,5.535 17.603 C 5.356 17.495,5.288 17.391,4.566 16.136 C 3.982 15.120,3.920 14.994,3.920 14.824 C 3.920 14.721,3.947 14.585,3.979 14.522 C 4.012 14.459,4.322 14.174,4.669 13.889 C 5.618 13.108,5.735 12.901,5.735 12.000 C 5.735 11.099,5.618 10.892,4.669 10.111 C 4.322 9.826,4.012 9.541,3.979 9.478 C 3.947 9.415,3.920 9.279,3.920 9.176 C 3.920 9.006,3.982 8.880,4.566 7.864 C 5.288 6.609,5.356 6.505,5.535 6.397 C 5.736 6.274,5.907 6.302,6.667 6.585 C 7.539 6.910,7.833 6.963,8.223 6.866 C 8.375 6.829,8.647 6.714,8.830 6.609 C 9.610 6.165,9.773 5.898,9.961 4.760 C 10.102 3.901,10.129 3.803,10.257 3.682 C 10.460 3.492,10.562 3.481,12.060 3.491 C 13.379 3.499,13.468 3.505,13.596 3.580 M11.260 8.586 C 10.621 8.721,10.034 9.047,9.540 9.540 C 8.855 10.225,8.520 11.034,8.520 12.000 C 8.520 12.966,8.855 13.775,9.540 14.460 C 10.225 15.145,11.034 15.480,12.000 15.480 C 12.966 15.480,13.775 15.145,14.460 14.460 C 15.145 13.775,15.480 12.966,15.480 12.000 C 15.480 11.034,15.145 10.225,14.460 9.540 C 13.956 9.037,13.373 8.717,12.712 8.583 C 12.329 8.505,11.636 8.506,11.260 8.586 M12.660 9.587 C 13.056 9.686,13.427 9.906,13.761 10.239 C 14.265 10.743,14.490 11.286,14.490 12.000 C 14.490 12.714,14.265 13.257,13.761 13.761 C 13.257 14.265,12.714 14.490,12.000 14.490 C 11.286 14.490,10.743 14.265,10.239 13.761 C 9.735 13.257,9.510 12.714,9.510 12.000 C 9.510 11.286,9.735 10.743,10.239 10.239 C 10.894 9.584,11.737 9.357,12.660 9.587 " stroke="none" fill-rule="evenodd" fill="black"></path></svg>