<svg width="24" height="24" viewBox="0 0 24 24" fill="none" xmlns="http://www.w3.org/2000/svg"><path d="M6.774 2.599 C 5.889 2.833,5.149 3.549,4.873 4.440 L 4.780 4.740 4.780 12.020 L 4.780 19.300 4.889 19.620 C 5.163 20.429,5.860 21.118,6.660 21.371 L 6.940 21.460 10.500 21.460 L 14.060 21.460 14.340 21.371 C 15.139 21.118,15.802 20.466,16.097 19.645 L 16.220 19.300 16.232 17.103 C 16.241 15.482,16.231 14.876,16.197 14.792 C 16.087 14.527,15.689 14.427,15.461 14.607 C 15.240 14.780,15.240 14.783,15.240 17.012 C 15.240 18.926,15.235 19.083,15.164 19.288 C 14.945 19.925,14.393 20.386,13.740 20.479 C 13.368 20.531,7.632 20.531,7.260 20.479 C 6.607 20.386,6.055 19.925,5.836 19.288 C 5.762 19.075,5.760 18.835,5.760 12.000 C 5.760 5.165,5.762 4.925,5.836 4.712 C 6.055 4.075,6.607 3.614,7.260 3.521 C 7.632 3.469,13.368 3.469,13.740 3.521 C 14.393 3.614,14.945 4.075,15.164 4.712 C 15.235 4.917,15.240 5.074,15.240 6.988 C 15.240 9.217,15.240 9.220,15.461 9.393 C 15.689 9.573,16.087 9.473,16.197 9.208 C 16.231 9.124,16.241 8.519,16.232 6.897 L 16.219 4.700 16.111 4.380 C 15.842 3.584,15.160 2.903,14.360 2.629 L 14.100 2.540 10.580 2.532 C 7.242 2.524,7.045 2.527,6.774 2.599 M18.446 8.621 C 18.287 8.755,18.220 8.957,18.277 9.130 C 18.306 9.218,18.679 9.619,19.420 10.360 C 20.025 10.965,20.520 11.473,20.520 11.490 C 20.520 11.506,17.881 11.520,14.656 11.520 L 8.792 11.520 8.656 11.656 C 8.536 11.776,8.520 11.817,8.520 12.000 C 8.520 12.183,8.536 12.224,8.656 12.344 L 8.792 12.480 14.656 12.480 C 17.881 12.480,20.520 12.494,20.520 12.510 C 20.520 12.527,20.025 13.035,19.420 13.640 C 18.251 14.809,18.195 14.882,18.280 15.139 C 18.352 15.358,18.527 15.480,18.771 15.480 L 18.976 15.480 20.551 13.910 C 21.417 13.047,22.152 12.291,22.183 12.232 C 22.214 12.173,22.240 12.068,22.240 12.000 C 22.240 11.932,22.214 11.827,22.183 11.768 C 22.152 11.709,21.417 10.954,20.551 10.090 L 18.976 8.520 18.771 8.520 C 18.610 8.520,18.540 8.542,18.446 8.621 " stroke="none" fill-rule="evenodd" fill="black"></path></svg>