<svg width="28" height="28" viewBox="0 0 28 28" fill="none" xmlns="http://www.w3.org/2000/svg"><path d="M13.137 0.027 C 12.141 0.125,11.846 0.164,11.340 0.263 C 5.665 1.378,1.285 5.796,0.239 11.462 C 0.071 12.373,0.028 12.886,0.028 14.000 C 0.028 15.114,0.071 15.627,0.239 16.538 C 1.223 21.870,5.216 26.170,10.452 27.538 C 14.351 28.557,18.516 27.842,21.840 25.584 C 25.035 23.414,27.145 20.136,27.794 16.333 C 28.382 12.893,27.627 9.251,25.727 6.362 C 23.448 2.896,19.847 0.641,15.750 0.115 C 15.212 0.046,13.524 -0.011,13.137 0.027 M14.810 1.027 C 16.588 1.142,18.145 1.559,19.763 2.355 C 21.109 3.016,22.029 3.683,23.173 4.827 C 24.317 5.971,24.984 6.891,25.645 8.237 C 26.069 9.099,26.369 9.896,26.581 10.722 C 27.576 14.605,26.781 18.608,24.376 21.831 C 23.558 22.927,22.099 24.266,20.883 25.035 C 20.321 25.391,19.196 25.940,18.486 26.204 C 15.655 27.258,12.345 27.258,9.514 26.204 C 8.804 25.940,7.679 25.391,7.117 25.035 C 5.529 24.030,3.970 22.471,2.965 20.883 C 2.611 20.324,2.060 19.197,1.800 18.497 C 0.888 16.045,0.754 13.257,1.426 10.693 C 1.885 8.940,2.817 7.117,3.951 5.754 C 4.395 5.221,5.369 4.257,5.900 3.827 C 6.847 3.060,8.279 2.254,9.503 1.800 C 10.606 1.390,11.940 1.104,13.090 1.030 C 13.903 0.977,14.043 0.977,14.810 1.027 M13.573 4.203 C 11.925 4.380,10.566 5.579,10.143 7.230 C 9.904 8.159,10.010 9.198,10.430 10.064 C 10.917 11.067,11.716 11.772,12.787 12.142 C 13.218 12.291,13.251 12.295,14.000 12.295 C 14.749 12.295,14.782 12.291,15.213 12.142 C 16.285 11.771,17.086 11.065,17.568 10.064 C 17.806 9.570,17.904 9.221,17.961 8.664 C 18.106 7.232,17.500 5.833,16.357 4.960 C 15.883 4.599,15.120 4.283,14.579 4.226 C 14.031 4.168,13.924 4.165,13.573 4.203 M14.973 5.320 C 15.816 5.619,16.584 6.426,16.860 7.303 C 17.009 7.776,17.009 8.746,16.860 9.217 C 16.551 10.190,15.652 11.043,14.695 11.268 C 14.313 11.358,13.687 11.358,13.305 11.268 C 12.359 11.045,11.455 10.196,11.146 9.240 C 11.008 8.813,10.976 8.011,11.079 7.551 C 11.323 6.455,12.183 5.545,13.253 5.251 C 13.643 5.144,14.584 5.182,14.973 5.320 M12.877 14.304 C 10.664 14.678,8.841 15.908,7.647 17.832 C 6.979 18.909,6.553 20.311,6.527 21.521 C 6.516 22.017,6.562 22.103,6.938 22.282 C 8.770 23.155,10.998 23.694,13.184 23.794 C 15.692 23.908,18.053 23.516,20.289 22.614 C 21.044 22.309,21.326 22.164,21.408 22.039 C 21.567 21.796,21.441 20.593,21.159 19.660 C 20.777 18.398,20.196 17.409,19.276 16.456 C 18.155 15.296,16.752 14.576,15.073 14.300 C 14.585 14.220,13.363 14.222,12.877 14.304 M14.935 15.280 C 16.039 15.461,16.964 15.852,17.828 16.502 C 19.217 17.548,20.133 19.081,20.418 20.835 C 20.522 21.479,20.539 21.436,20.125 21.609 C 18.812 22.155,17.544 22.498,16.040 22.712 C 15.203 22.831,12.817 22.831,11.970 22.711 C 11.108 22.589,10.156 22.385,9.441 22.168 C 8.862 21.993,7.710 21.565,7.562 21.470 C 7.504 21.432,7.505 21.361,7.571 20.922 C 8.016 17.992,10.161 15.773,13.020 15.283 C 13.493 15.202,14.448 15.200,14.935 15.280 " stroke="none" fill-rule="evenodd" fill="black"></path></svg>