<svg width="16" height="20" viewBox="0 0 16 20" fill="none" xmlns="http://www.w3.org/2000/svg">
<path d="M11.5005 4.2564C11.5005 5.20846 11.1317 6.12152 10.4752 6.79473C9.81874 7.46793 8.92838 7.84614 8 7.84614C7.07162 7.84614 6.18126 7.46793 5.5248 6.79473C4.86833 6.12152 4.49953 5.20846 4.49953 4.2564C4.49953 3.30434 4.86833 2.39127 5.5248 1.71807C6.18126 1.04486 7.07162 0.666656 8 0.666656C8.92838 0.666656 9.81874 1.04486 10.4752 1.71807C11.1317 2.39127 11.5005 3.30434 11.5005 4.2564ZM1 17.7711C1.03 15.8875 1.78069 14.0915 3.09018 12.7703C4.39967 11.4492 6.16304 10.7088 8 10.7088C9.83696 10.7088 11.6003 11.4492 12.9098 12.7703C14.2193 14.0915 14.97 15.8875 15 17.7711C12.8039 18.8037 10.4159 19.3367 8 19.3333C5.50207 19.3333 3.13108 18.7743 1 17.7711Z" stroke="#2F2F2F" stroke-linecap="round" stroke-linejoin="round"/>
</svg>
